<?xml version="1.0" encoding="UTF-8"?>
<svg width="52px" height="32px" viewBox="0 0 52 32" version="1.1" xmlns="http://www.w3.org/2000/svg" xmlns:xlink="http://www.w3.org/1999/xlink">
    <!-- Generator: Sketch 53.2 (72643) - https://sketchapp.com -->
    <title>eco</title>
    <desc>Created with Sketch.</desc>
    <g id="Page-1" stroke="none" stroke-width="1" fill="none" fill-rule="evenodd">
        <g id="Apple-TV-Copy-3" transform="translate(-1180.000000, -1329.000000)" fill="#80CE3B" fill-rule="nonzero">
            <g id="eco" transform="translate(1180.000000, 1329.000000)">
                <path d="M51.5738387,2.08264892 C51.4377612,1.22313713 50.75301,0.54881101 49.88021,0.414805383 C41.0581865,-0.94126984 32.1207152,0.94496786 25.999214,7.34637726 C19.9399988,1.01880771 11.0707647,-0.960804249 2.1205982,0.414805383 C1.24740157,0.54881101 0.562650309,1.22313713 0.426572943,2.08264892 C-2.39574468,19.8936867 9.0867318,32.4730325 25.9932631,31.9854549 C42.9414507,32.4890507 54.3913955,19.8643851 51.5738387,2.08264892 Z M4.24229547,4.17243462 C12.1919159,3.32308064 19.0596611,5.60234969 23.4621433,10.5429797 C22.1703994,12.5171221 21.1504137,14.7456018 20.4525704,17.3069469 L15.8251439,12.7499717 C15.0320861,11.968988 13.7458965,11.968988 12.952442,12.7499717 C12.1593842,13.531346 12.1593842,14.7975631 12.952442,15.5789375 L19.6059545,22.1307615 C19.4603556,23.8470503 19.4647196,25.6164725 19.6222203,27.4316052 C8.57931764,25.0280977 2.98347997,15.6101925 4.24229547,4.17243462 Z M26.4395812,27.9953667 L39.0479695,15.5785468 C39.8410273,14.7975631 39.8410273,13.5309553 39.0479695,12.7499717 C38.2549118,11.9685973 36.9687221,11.9685973 36.1752676,12.7499717 L23.567276,25.1664009 C23.298295,11.2184779 33.6009046,2.6510987 47.7585128,4.17204396 C49.3410577,18.4579113 40.304008,28.254783 26.4395812,27.9953667 Z" id="Shape"></path>
            </g>
        </g>
    </g>
</svg>