<?xml version="1.0" encoding="UTF-8"?>
<svg width="52px" height="52px" viewBox="0 0 52 52" version="1.1" xmlns="http://www.w3.org/2000/svg" xmlns:xlink="http://www.w3.org/1999/xlink">
    <!-- Generator: Sketch 53.2 (72643) - https://sketchapp.com -->
    <title>user (2)</title>
    <desc>Created with Sketch.</desc>
    <g id="Page-1" stroke="none" stroke-width="1" fill="none" fill-rule="evenodd">
        <g id="Apple-TV-Copy-3" transform="translate(-390.000000, -1315.000000)" fill="#80CE3B" fill-rule="nonzero">
            <g id="user-(2)" transform="translate(390.000000, 1315.000000)">
                <path d="M31.521,21.622563 C32.1391,20.6443259 32.5,19.4765185 32.5,18.2222222 C32.5,14.7912889 29.8084,12 26.5,12 C23.1916,12 20.5,14.7912889 20.5,18.2222222 C20.5,19.4765185 20.8609,20.6443259 21.479,21.622563 C18.3224,22.5400296 16,25.5485778 16,29.1111111 L16,35.3333333 C16,37.9065333 18.0187,40 20.5,40 L32.5,40 C34.9813,40 37,37.9065333 37,35.3333333 L37,29.1111111 C37,25.5485778 34.6776,22.5400296 31.521,21.622563 Z M26.5,15.1111111 C28.1542,15.1111111 29.5,16.5067556 29.5,18.2222222 C29.5,19.9376889 28.1542,21.3333333 26.5,21.3333333 C24.8458,21.3333333 23.5,19.9376889 23.5,18.2222222 C23.5,16.5067556 24.8458,15.1111111 26.5,15.1111111 Z M34,35.3333333 C34,36.1910667 33.3271,36.8888889 32.5,36.8888889 L20.5,36.8888889 C19.6729,36.8888889 19,36.1910667 19,35.3333333 L19,29.1111111 C19,26.5379111 21.0187,24.4444444 23.5,24.4444444 L25,24.4444444 L25,32.2222222 C25,33.0813037 25.6716,33.7777778 26.5,33.7777778 C27.3284,33.7777778 28,33.0813037 28,32.2222222 L28,24.4444444 L29.5,24.4444444 C31.9813,24.4444444 34,26.5379111 34,29.1111111 L34,35.3333333 Z" id="Shape"></path>
                <path d="M48.5207734,21.5623281 C46.7296172,12.4819297 39.5186797,5.27048438 30.4376719,3.47932813 C29.947125,1.4844375 28.1440859,0 26,0 C23.8559141,0 22.052875,1.4844375 21.5623281,3.47922656 C12.4813203,5.27048437 5.27038281,12.4818281 3.47922656,21.5623281 C1.48433594,22.052875 0,23.8559141 0,26 C0,28.1440859 1.48433594,29.947125 3.47922656,30.4376719 C5.27038281,39.5180703 12.4813203,46.7295156 21.5623281,48.5206719 C22.052875,50.5155625 23.8559141,52 26,52 C28.1440859,52 29.947125,50.5155625 30.4376719,48.5207734 C39.5185781,46.7296172 46.7296172,39.5181719 48.5207734,30.4377734 C50.5156641,29.947125 52,28.1440859 52,26 C52,23.8559141 50.5156641,22.052875 48.5207734,21.5623281 Z M26,3.046875 C26.8400234,3.046875 27.5234375,3.73028906 27.5234375,4.5703125 C27.5234375,5.41033594 26.8400234,6.09375 26,6.09375 C25.1599766,6.09375 24.4765625,5.41033594 24.4765625,4.5703125 C24.4765625,3.73028906 25.1599766,3.046875 26,3.046875 Z M4.5703125,27.5234375 C3.73028906,27.5234375 3.046875,26.8400234 3.046875,26 C3.046875,25.1599766 3.73028906,24.4765625 4.5703125,24.4765625 C5.41033594,24.4765625 6.09375,25.1599766 6.09375,26 C6.09375,26.8400234 5.41033594,27.5234375 4.5703125,27.5234375 Z M26,48.953125 C25.1599766,48.953125 24.4765625,48.2697109 24.4765625,47.4296875 C24.4765625,46.5896641 25.1599766,45.90625 26,45.90625 C26.8400234,45.90625 27.5234375,46.5896641 27.5234375,47.4296875 C27.5234375,48.2697109 26.8400234,48.953125 26,48.953125 Z M45.4743047,30.1299375 C43.8494063,37.7793203 37.7798281,43.8494062 30.1299375,45.4744062 C29.3958438,43.9299453 27.8208125,42.859375 26,42.859375 C24.1791875,42.859375 22.6041563,43.9299453 21.8700625,45.4744062 C14.2202734,43.8494062 8.15059375,37.7794219 6.52569531,30.1300391 C8.07015625,29.3957422 9.140625,27.8207109 9.140625,26 C9.140625,24.1792891 8.07015625,22.6042578 6.52569531,21.8700625 C8.15059375,14.2206797 14.2201719,8.15069531 21.8700625,6.52569531 C22.6041563,8.07005469 24.1791875,9.140625 26,9.140625 C27.8208125,9.140625 29.3958438,8.07005469 30.1299375,6.52559375 C37.7797266,8.15059375 43.8494063,14.2205781 45.4743047,21.8699609 C43.9298438,22.6042578 42.859375,24.1792891 42.859375,26 C42.859375,27.8207109 43.9298438,29.3957422 45.4743047,30.1299375 Z M47.4296875,27.5234375 C46.5896641,27.5234375 45.90625,26.8400234 45.90625,26 C45.90625,25.1599766 46.5896641,24.4765625 47.4296875,24.4765625 C48.2697109,24.4765625 48.953125,25.1599766 48.953125,26 C48.953125,26.8400234 48.2697109,27.5234375 47.4296875,27.5234375 Z" id="Shape"></path>
            </g>
        </g>
    </g>
</svg>