<?xml version="1.0" encoding="UTF-8"?>
<svg width="52px" height="52px" viewBox="0 0 52 52" version="1.1" xmlns="http://www.w3.org/2000/svg" xmlns:xlink="http://www.w3.org/1999/xlink">
    <!-- Generator: Sketch 53.2 (72643) - https://sketchapp.com -->
    <title>insurance</title>
    <desc>Created with Sketch.</desc>
    <g id="Page-1" stroke="none" stroke-width="1" fill="none" fill-rule="evenodd">
        <g id="Apple-TV-Copy-3" transform="translate(-799.000000, -1319.000000)" fill="#80CE3B" fill-rule="nonzero">
            <g id="insurance" transform="translate(799.000000, 1319.000000)">
                <path d="M44.018219,17.1502701 C45.8554688,15.6185709 47.0254211,13.3146729 47.0254211,10.7413388 C47.0254211,6.14187606 43.2850647,2.39952995 38.6861877,2.39952995 C34.0873108,2.39952995 30.3457641,6.14187606 30.3457641,10.7413388 C30.3457641,13.3146729 31.5169067,15.6185709 33.3529664,17.1502701 C32.5670471,17.4947041 31.8204041,17.9133421 31.1229553,18.3978511 C30.2180176,16.5459235 28.3157043,15.2669942 26.1198121,15.2669942 C24.5162354,15.2669942 23.0689697,15.9487195 22.0533447,17.0375752 C21.322174,16.5510821 20.5429992,16.1304599 19.7253418,15.7852324 C21.7609558,14.1606789 23.0669861,11.6599615 23.0669861,8.85925343 C23.0669861,3.97408507 19.0925598,0 14.2096252,0 C9.32550044,0 5.35147092,3.97408507 5.35147092,8.85925343 C5.35147092,11.6599615 6.6575012,14.1606789 8.69271853,15.7852324 C3.58920291,17.9438967 0,23.0016789 0,28.8832453 L0,37.0568053 L25.1914672,37.0568053 C25.4727478,39.7194225 26.340393,42.2935503 27.7408447,44.5942737 C29.4745484,47.4437898 31.956482,49.7587986 34.9192504,51.2908946 L36.2903442,52 L37.6614379,51.2908946 C40.6230164,49.7587986 43.1053467,47.4437898 44.8386535,44.5942737 C46.239502,42.2935503 47.1067504,39.7194225 47.3892211,37.0568053 L52,37.0568053 L52,29.3526755 C52,23.9048258 48.7123108,19.2105247 44.018219,17.1502701 Z M33.3926391,10.7413388 C33.3926391,7.82198346 35.7674561,5.44705598 38.6861877,5.44705598 C41.604126,5.44705598 43.9785461,7.82198346 43.9785461,10.7413388 C43.9785461,13.6599005 41.604126,16.0352248 38.6861877,16.0352248 C35.7674561,16.0352248 33.3926391,13.6599005 33.3926391,10.7413388 Z M44.4427185,35.1421812 C44.4427185,35.7881933 44.4022522,36.4270627 44.3217164,37.0568053 C43.7063904,41.9522909 40.7467957,46.25335 36.2903442,48.5683587 C31.8327027,46.25335 28.8731079,41.9522909 28.257782,37.0568053 C28.1939086,36.5552333 28.1550293,36.0461219 28.1419373,35.5330423 C28.1387635,35.4032844 28.1367797,35.2731297 28.1367797,35.1421812 L28.1367797,33.4069168 C28.2312012,33.3600928 28.3256226,33.3124752 28.4180603,33.2628735 C29.6340332,32.6176552 30.6829834,31.7137145 31.4966736,30.6185098 C31.7902527,30.2244742 32.0520935,29.8058362 32.2817993,29.3657703 L40.2980957,29.3657703 C41.2129516,31.1244468 42.6633911,32.5382925 44.4427185,33.4069168 L44.4427185,35.1421812 Z M20.6517029,34.0092793 L20.6517029,31.5815757 C20.6517029,28.9729252 22.5905152,26.8071182 25.1033936,26.4515735 C25.2993774,26.423003 25.4981385,26.4067336 25.7004699,26.4015751 C25.7441101,26.4007814 25.7889404,26.399591 25.833374,26.399591 L26.40625,26.399591 C27.0584717,26.399591 27.6817322,26.520619 28.257782,26.7420408 C28.4109192,26.7999755 28.5604859,26.8658466 28.7056885,26.939257 C29.0794067,27.1241721 29.4265442,27.3535301 29.7427368,27.6205855 C29.4205933,28.3408015 28.9695129,28.9848295 28.4180603,29.5252893 C27.7733765,30.1582064 26.9890442,30.6498581 26.1126709,30.9558011 L25.3711853,31.2137297 L25.0899047,31.3113458 L25.0899047,34.0092793 L20.6517029,34.0092793 Z M24.4035645,18.9922775 C24.8534546,18.5716553 25.456482,18.3145203 26.1198121,18.3145203 C27.4413147,18.3145203 28.5279541,19.337505 28.6283264,20.6346876 C28.634674,20.7009554 28.6374512,20.7668265 28.6374512,20.8338879 C28.6374512,21.8394127 28.0455322,22.7080369 27.1921692,23.1115961 C27.0846558,23.1631818 26.9727783,23.2068313 26.8581238,23.241354 C26.6244507,23.3135741 26.3768921,23.3520649 26.1198121,23.3520649 C24.7304688,23.3520649 23.6009826,22.2227344 23.6009826,20.8338879 C23.6009826,20.1077195 23.9100342,19.4513904 24.4035645,18.9922775 Z M8.39834592,8.85925343 C8.39834592,5.65538292 11.005249,3.04752602 14.2096252,3.04752602 C17.4128113,3.04752602 20.0201111,5.65538292 20.0201111,8.85925343 C20.0201111,12.0643143 17.4128113,14.6709807 14.2096252,14.6709807 C11.005249,14.6709807 8.39834592,12.0643143 8.39834592,8.85925343 Z M3.046875,34.0092793 L3.046875,28.8832453 C3.046875,22.7274809 8.05398557,17.7185068 14.2096252,17.7185068 C16.609436,17.7185068 18.8346863,18.4803883 20.6556701,19.7743964 C20.588623,20.1176398 20.5541076,20.4712005 20.5541076,20.8338879 C20.5541076,22.1838466 21.0365295,23.4230945 21.8399047,24.3873508 C19.3151246,25.7952444 17.6048279,28.4923843 17.6048279,31.5815757 L17.6048279,34.0092793 L3.046875,34.0092793 Z M48.953125,34.0092793 L47.4895935,34.0092793 L47.4895935,31.3113458 L46.4680176,30.9558011 C44.7323303,30.350264 43.3600464,29.0173683 42.7050476,27.2987699 L42.3301391,26.3182443 L32.726532,26.3182443 C32.0786743,25.5404902 31.2883911,24.8841611 30.3985291,24.3873508 C30.9733887,23.6964989 31.3840027,22.8655719 31.5708618,21.9544886 C33.4180297,20.1767651 35.9265442,19.0827508 38.6861877,19.0827508 C44.347107,19.0827508 48.953125,23.6893563 48.953125,29.3526755 L48.953125,34.0092793 Z" id="Shape"></path>
                <polygon id="Path" points="39.9642485 34 39.4298495 34.5510037 36.3977738 37.6763429 35.4273875 38.6774282 34.4333519 37.6763429 33.0105763 36.2430819 31.7419031 37.6763429 31 38.515057 35.4506554 43 40.6134614 37.6763429 42 36.2471513 40.4631736 34.5510037"></polygon>
            </g>
        </g>
    </g>
</svg>