<?xml version="1.0" encoding="UTF-8"?>
<svg width="23px" height="23px" viewBox="0 0 23 23" version="1.1" xmlns="http://www.w3.org/2000/svg" xmlns:xlink="http://www.w3.org/1999/xlink">
    <!-- Generator: Sketch 53.2 (72643) - https://sketchapp.com -->
    <title>Shape</title>
    <desc>Created with Sketch.</desc>
    <g id="Page-1" stroke="none" stroke-width="1" fill="none" fill-rule="evenodd">
        <g id="Apple-TV-Copy-2" transform="translate(-430.000000, -1074.000000)" fill="#80CE3B" fill-rule="nonzero">
            <g id="Group-5" transform="translate(429.000000, 962.000000)">
                <g id="Group-4" transform="translate(1.000000, 112.000000)">
                    <g id="checked-(1)">
                        <path d="M11.5,0 C5.12272727,0 0,5.12272727 0,11.5 C0,17.8772727 5.12272727,23 11.5,23 C17.8772727,23 23,17.8772727 23,11.5 C23,5.12272727 17.8772727,0 11.5,0 Z M18.1386364,7.89318182 L18.1386364,7.89318182 L9.775,16.5704545 C9.67045455,16.675 9.56590909,16.7272727 9.40909091,16.7272727 C9.25227273,16.7272727 9.09545455,16.675 9.04318182,16.5704545 L4.96590909,12.1795455 L4.86136364,12.075 C4.75681818,11.9704545 4.70454545,11.8136364 4.70454545,11.7090909 C4.70454545,11.6045455 4.75681818,11.4477273 4.86136364,11.3431818 L5.59318182,10.6113636 C5.80227273,10.4022727 6.11590909,10.4022727 6.325,10.6113636 L6.37727273,10.6636364 L9.25227273,13.7477273 C9.35681818,13.8522727 9.51363636,13.8522727 9.61818182,13.7477273 L16.6227273,6.48181818 L16.675,6.48181818 C16.8840909,6.27272727 17.1977273,6.27272727 17.4068182,6.48181818 L18.1386364,7.21363636 C18.3477273,7.37045455 18.3477273,7.68409091 18.1386364,7.89318182 L18.1386364,7.89318182 Z" id="Shape"></path>
                    </g>
                </g>
            </g>
        </g>
    </g>
</svg>