<?xml version="1.0" encoding="utf-8"?>
<!-- Generator: Adobe Illustrator 22.1.0, SVG Export Plug-In . SVG Version: 6.00 Build 0)  -->
<svg version="1.1" id="Warstwa_1" xmlns="http://www.w3.org/2000/svg" xmlns:xlink="http://www.w3.org/1999/xlink" x="0px" y="0px"
	 viewBox="0 0 80 80" style="enable-background:new 0 0 80 80;" xml:space="preserve">
<style type="text/css">
	.st0{fill:#53525D;}
</style>
<g id="Ryba">
	<g>
		<path class="st0" d="M69,38.7c0.6,0,1.5-0.2,2.1-0.1c0.5,0.1,0.8,0.8,1.3,0.3c0.3-0.3,0.4-0.9,0.3-1.3c-0.4-1.9-3.2-2.9-4.9-2.9
			c-2.3,0-4.9,0.7-6.8,1.9c-0.1,0-0.1,0.1-0.2,0.1c-0.8,0.5-2,1.2-2.4,2.1c-0.5,1,1.8,0.2,2.1,0.2c0.9-0.1,1.8-0.5,2.7-0.5
			c1.1,0,2.2,0.3,3.3,0.3C67.3,38.8,68.2,38.8,69,38.7z"/>
		<path class="st0" d="M26.4,32.8c0,0,0.4-1.6,0.4-1.6c-0.4,0.7-1.2,2.5-1.4,3.4c-0.6,2.6-0.2,5.6,0.6,7.9c0.2,0.6,0.9,2.1,1.2,2.7
			c0.9,1.7,2,2.6,3.3,3.8c0.4,0.3,0.8,0.6,1.2,1c1.4,1.1,3,2,4.8,2.6c2.7,0.9,5.2,1.2,8.1,0.5c1.3-0.3,2.5-1,3.6-1.7
			c0.7-0.5,2.2-1.2,2.3-2.1c-0.6,0-1.4,0.1-1.9,0.3c-0.8,0.3-1.5,0.6-2.2,0.9c-1.5,0.6-3,0.9-4.6,0.9c-5,0.1-10.1-2.8-13.2-6.6
			c-1.4-1.8-2.6-4.5-2.6-7.7c0-0.3,0.1-0.6,0.1-0.8C25.9,35,26.2,34,26.4,32.8z"/>
		<path class="st0" d="M73.5,67.9c-0.4-0.1-0.8-0.2-1.1-0.2c-0.5-0.2-0.9-0.3-1.4-0.2c-0.5-0.2-0.9-0.1-1.3-0.3
			c-0.2,0.1-0.4-0.1-0.6,0c-0.1-0.2-0.3,0-0.5,0c-0.3-0.2-0.9-0.1-1.3-0.2c-1.9,0-3.8,0-4.8-0.3c-0.3,0-0.5,0-0.8,0
			c0.1-0.1,0.1-0.2,0.2-0.3c0,0,0-0.1-0.1-0.1c-0.4-0.9,7.4,1.5,11.3-5.9c2.9-5.5-7.9-14.1-7.3-8.7c0.8,8-7.8,10.2-11.8,8.6
			c-0.2-0.1-0.3-0.1-0.5-0.2c0.3,0.8,0.2,1.6-0.6,1.8c-0.1-0.2,0.1-0.3,0.2-0.3c0.3-0.3,0.3-1,0.1-1.5c-0.3-0.1-0.6-0.2-0.8-0.3
			c0,0.5-0.1,0.9-0.4,1.3c-0.2,0-0.3,0.3-0.5,0.1c0-0.2,0.2-0.3,0.3-0.4c0.2-0.3,0.3-0.7,0.4-1.1c-0.3-0.1-0.5-0.2-0.8-0.4
			c-0.2,0.4-0.5,0.7-0.8,0.7c0-0.4,0.4-0.4,0.5-0.6c0-0.1,0.1-0.1,0.1-0.2c-0.3-0.2-0.6-0.3-0.9-0.5c0,0.9-0.4,1.8-1,2.4
			c-0.2,0.2-0.6,0.4-0.8,0.4c0-0.3-0.2-0.7,0.1-0.8c0.2,0,0.1,0.3,0.4,0.3c0.1-0.4-0.4-0.7-0.2-1.2c0.3,0,0.5,0.5,0.6,0.7
			c0.3-0.4-0.3-0.6-0.3-1.1c0,0,0.1-0.1,0.1-0.1c0.3,0.1,0.4,0.3,0.6,0.5c0.2-0.3-0.3-0.4-0.3-0.8c0.1-0.1,0.1-0.2,0.3-0.1
			c0.1,0,0-0.3,0.1-0.3c0.1,0,0.2,0.1,0.3,0.1c0.1,0,0.1-0.1,0.1-0.2c-0.4-0.3-0.7-0.6-0.9-1c-0.2,1-0.8,1.7-1.5,1.8
			c-0.1-0.2,0.1-0.3,0.2-0.4c0-0.3-0.2-0.7,0-0.9c0.2,0.2,0.2,0.5,0.4,0.7c0.1,0,0.1-0.1,0.1-0.1c0-0.5-0.4-0.8-0.3-1.4
			c0.3,0.2,0.3,0.7,0.6,1c0.1,0.1,0.1-0.2,0.2-0.2c-0.1-0.5-0.4-0.7-0.5-1.3c0,0,0,0,0-0.1c0.3,0,0.4,0.6,0.6,0.7c0,0,0-0.1,0-0.1
			c0-0.1-0.1-0.2-0.1-0.3c-0.1-0.1-0.2-0.3-0.2-0.5c0-0.1,0.1-0.2,0.1-0.1c0-1.2,0.4-2.7,1.1-3.4c0.4-0.4,0.8-0.7,1.3-1
			c0.4-0.3,0.8-0.8,1.3-1c-1.4,0.6-2.6,1.2-3.9,1.9c-0.4,0.2-0.9,0.4-1.4,0.6c0,0,0,0,0,0c-0.2,0.3-0.6,0.5-0.9,0.7
			c-0.3,0.2-0.6,0.4-0.9,0.6c-0.2,0.1-0.4,0.3-0.6,0.4c-2.2,1.7-3.7,4-4.4,6.6c-0.5,2-0.2,4,1.2,5.6c1.3,1.4,2.7,1.9,4.3,2.3
			c0.5,0.1,3.2,0.3,5.6,0.6c0,0-3.1,0.3-5,0.2c-1.7-0.1-3.3-0.8-4.6-1.8c-1.5-1.1-2.1-2.8-2.3-4.7c-0.4-3.6,2.1-6.8,4.7-8.9
			c0.2-0.2,0.7-0.7,1.3-1.1c-0.2,0.1-0.4,0.1-0.6,0.2c-4.3,1.1-9.6,0.3-13.4-1.9c-2.7-1.6-6.3-5.8-7.1-10.6c-0.4-2.5-0.3-5,0.3-7.5
			c0.5-2.1,1.9-4.2,3.3-5.8c0.6-0.7,1.3-1.4,2-2c0.4-0.4,1.3-0.8,1.6-1.3c-0.2,0.3-1.3,1.9-1.7,2.4c-1.5,2.1-2.6,4.6-3.1,7.1
			c-1.2,5.3,1.8,10.6,6.1,13.5c2.3,1.5,5.2,2.9,8,2.8c0.6,0,4.6-0.2,4.5-1.1c-0.1-0.8-3.7-0.8-4.2-0.8c-2.1-0.3-4-1-5.4-2.6
			c-3.3-3.6-4.6-9.4-2.1-13.8c0.4-0.6,0.9-1.2,1.1-1.9c0,0.8-0.4,1.5-0.5,2.2c-0.6,3-0.5,6.3,0.8,9c0.5,1.1,2.1,2.2,3.1,2.7
			c1.2,0.6,2.6,0.7,3.9,0.5c4.4-0.5,7.5-3.2,10.4-6.4c2.6-2.8,5.2-5.9,9.2-6.3c0.3,0,0.6-0.2,0.9-0.1c-0.9,0.1-1.5,0.8-2.3,1.2
			c-0.5,0.2-1,0.4-1.4,0.7c-0.1,0.1-0.1,0.2-0.2,0.2c-0.4,0.2-0.7,0.4-1,0.7c-0.6,0.5-1.3,1.1-1.9,1.6c-0.3,0.3-0.6,0.5-0.9,0.9
			c1.4-0.9,2.9-2.2,4.7-2.8c-1.2,0.8-1.7,2.2-2.5,3.3c-0.4,0.6-0.8,1.2-1.2,1.8c-0.3,0.5-0.5,1.1-0.9,1.6c0.7-0.9,1.6-1.6,2.3-2.5
			c1.6-1.9,2.7-3.8,5.1-4.8c0.7-0.3,1.6-0.6,2.4-0.7c0.9-0.2,1.9-0.3,2.8-0.2c1.6,0,3.5,0.4,4.7,1.5c1.4,1.3,1.4,3.5,0.5,5.1
			c-0.3,0.6-0.8,1.1-1.5,1.4c-0.4,0.2-1,0.2-1.3,0.5c-0.3,0.2-0.4,0.6,0.1,0.7c0.5,0,0.8-0.2,1.1-0.4c0.5-0.3,1-0.4,1.3-0.8
			c1.5,2.4,2,5.2,3.5,7.6c-0.2-0.2-0.1-0.9-0.2-1.2c-0.1-0.4-0.2-0.7-0.3-1c-0.3-0.9-0.6-1.7-0.9-2.6c-0.4-1.2-1.4-2.7-0.9-4
			c0.2,0.6,0.6,1,1.1,1.4c0.2,0.2,0.9,0.6,1,0.9c-0.3-1.1-1.3-1.8-1.9-2.7c0.4-1.5,0.5-2.9-0.1-4.4c-0.6-1.5-2.1-2.3-2.7-3.7
			c-0.6-1.3-0.3-2.9-1.4-4c-0.5-0.5-1.2-0.7-1.4-1.4c-0.1-0.3,0-0.5-0.1-0.8c-0.2-0.5-0.9-0.8-1.3-1.1c-0.6-0.5-1.1-1-1.7-1.5
			c-1-0.9-2-1.7-3.1-2.4c-1-0.7-2.1-1.4-3.2-2.1c-3.8-2.3-8-4.8-12.4-5.8C45.6,12,44.8,12.2,44,12c-1.1-0.3-1-1.1-1-2
			c-0.1-2.2-1.1-4.5-2.5-6.2c-0.6-0.8-3.9-5-5-2.9c-1.8,3.5-5.4,5.4-8.3,7.8c-1.4,1.1-2.7,2.4-4,3.6c-4.4,4.5-7.9,10.1-9.6,16.2
			c-0.4,1.4-0.7,2.9-0.9,4.4c0,0.4-0.5,4.5-0.2,4.5c-1-0.2-2-0.3-3-0.5c-2.4-0.4-4.6-0.6-6.2,1.5c-1.4,1.7-1.8,4.1-0.9,6.1
			c0.5,1.2,1.2,2.4,2,3.5c1.5,2,3.6,3.6,5.8,4.9c1,0.6,2.2,1.1,3.4,1.4c0.2,0,0.4,0.1,0.6,0.1c0,0,0,0,0,0c0,0,0,0,0,0
			c0.4,0.1,0.8,0.1,1.2,0.1c0,0,0.1,0,0.1,0c0.1,0,0.2-0.1,0.3-0.1l0,0.1c0.1,0,0.2,0,0.2,0c1.3-0.4,2.7-1,3.5-1.7l0,0
			c0.2,0,0.3-0.1,0.3-0.2c0.2,0,0.3,0,0.5,0c0,0,0,0,0.1,0l0-0.1l0.2,0l-0.1,0c0.1,0.1,0.4,0.1,0.5-0.1c0.1,0,0.1,0.1,0.1,0.1
			c-0.3,0.3-0.6,0.7-1,0.9c-0.2-0.1-0.1,0.1-0.3,0.2c-0.4,0.3-0.8,0.7-1.2,0.9l0-0.1c-0.2,0.1-0.3,0.1-0.5,0.2
			c-0.2-0.1-0.4,0.1-0.6,0.3c0.2,0.4,0.4,0.8,0.6,1.2c0,0,0,0,0,0.1c0.9-0.4,1.7-1,2.3-1.5l0,0c0.1-0.1,0.2-0.1,0.3-0.2
			c0.1,0,0.3-0.1,0.4-0.1c0,0,0,0,0.1,0l0-0.1l0.1,0l-0.1,0c0.1,0.1,0.3,0,0.3-0.2c0.1,0,0,0,0.1,0c-0.2,0.2-0.4,0.6-0.7,0.8
			c-0.1,0-0.1,0.1-0.2,0.2c-0.3,0.3-0.6,0.6-1,0.9l0,0c-0.1,0.1-0.3,0.1-0.4,0.2c-0.2-0.1-0.4,0.3-0.6,0.4c-0.1,0-0.1,0.1-0.2,0.1
			c0.2,0.3,0.4,0.6,0.5,0.9c0,0.2,0,0.3-0.1,0.5c0.8-0.4,1.5-0.9,2.1-1.4l0,0c0.1-0.1,0.2-0.1,0.3-0.2c0.1-0.1,0.2-0.1,0.3-0.1
			c0,0,0,0,0,0l0-0.1l0.1,0l0,0c0.1,0,0.2,0,0.3-0.2c0.1,0,0,0,0.1,0c-0.2,0.2-0.4,0.6-0.7,0.8c-0.1,0-0.1,0.1-0.2,0.2
			c-0.3,0.3-0.6,0.6-1,0.8l0,0c-0.1,0.1-0.3,0.1-0.4,0.2c-0.2,0-0.4,0.3-0.6,0.4c-0.2,0.1-0.5,0.2-0.8,0.3c-0.2,0.1-0.4,0.1-0.6,0.2
			c-0.2,0.1-0.3,0.2-0.5,0.4c-0.6,0.6-0.8,1.5-1,2.3c-0.3,2.1-0.3,5.4,2.1,6.4c1.2,0.5,2.2,0.4,3.3,0c0.4-0.1,0.8-0.2,1.1-0.4
			c1.1-0.4,2.1-0.8,3-1.2c2.2,2.1,8.5,5.4,8.9,5.1c0.2-0.2,0.1-0.8,0.1-1c0-0.7,0-1.3,0-1.9c0-0.8,0.3-2.5,1.1-3
			c0.4,0.5-0.3,1.7-0.4,2.2c-0.1,0.7-0.1,1.6,0,2.3c0.5,3.7,2.6,7.1,6,8.7c0.5,0.2,1,0.5,1.6,0.6c0.6,0.2,1.3,0.4,1.8,0.4
			c0.5,0,1.1,0,1.6,0c0.2,0,0.4-0.1,0.5-0.1c0.5,0,1.1,0,1.7-0.1c0.1,0,0.2-0.1,0.3-0.1c0.1,0,0.3,0,0.5,0c0.1,0,0.2-0.1,0.3-0.1
			c0.1,0,0.3,0,0.4,0c0.1,0,0.2-0.1,0.3-0.2c0.5-0.1,0.8-0.3,1.1-0.6c0.1-0.1,0.3-0.2,0.3-0.2c1-1.1-1.5-2.6-2.2-3.1
			c-0.5-0.4-1.4-1-1.5-1.6c-0.1-0.6,0.4-0.7,0.9-0.8c0.6-0.1,1.2-0.2,1.8-0.1c0.6,0.1,9.2,6.7,18.5,3.5C73.4,75,75.1,69.9,73.5,67.9
			C73.5,67.8,73.5,67.8,73.5,67.9z M68.8,63.2c-0.3,0.2-0.7,0.5-1.2,0.7c-1.3,0.6-2.9,0.8-4.5,0.8c-0.2,0-0.3,0-0.5,0
			c0.1-0.1,0.1-0.3,0.1-0.4c1.8-0.1,3.9-0.5,5.4-1.4c0.9-0.5,1.7-1.4,2.6-1.7C70.6,62,69.6,62.7,68.8,63.2z M71.6,58.6
			c-1.1,2.5-3.5,4.5-6.6,5c-0.7,0.1-1.4,0.2-2.1,0.2c0-0.1,0-0.2,0-0.3c0.7-0.1,1.4-0.3,2.1-0.6c0.7-0.2,1.4-0.4,2-0.7
			c0.3-0.2,0.6-0.4,0.9-0.6c1.3-0.8,2.1-1.8,2.8-3c0.3-0.5,0.5-1.2,1-1.7C72.2,57.3,71.9,57.9,71.6,58.6z M70.4,55.6
			c0.1-0.3,0.2-0.5,0.3-0.8c0.1-0.4,0-0.9,0.3-1.4c0.4-0.1,0.5,0.6,0.5,0.9c0,0.5-0.2,1.2-0.3,1.7c-0.5,1.6-1.6,3.1-2.6,4.1
			c-0.7,0.5-1.3,0.9-1.9,1.2c-0.5,0-0.8,0.4-1.2,0.6c-0.2,0.1-0.5,0.1-0.7,0.2c-0.3,0.1-0.6,0.2-0.8,0.3c-0.3,0.1-0.7,0.1-1,0.1
			c0-0.2-0.1-0.3-0.1-0.4c0.7-0.2,1.5-0.3,2-0.6c0.4-0.2,0.9-0.4,1.2-0.6c1.8-1,3.4-2.8,4.2-4.6C70.4,56.2,70.3,55.9,70.4,55.6z
			 M69.3,53.8c0-0.3,0.2-0.6,0.2-0.9c0-0.3-0.1-0.5,0.1-0.8c0.5-0.1,0.3,0.5,0.3,1c0,0.4,0.1,0.8,0.1,1.1c-0.2,2.2-1.8,4.9-4.1,6.2
			c-0.5,0.3-1.2,0.7-1.6,0.8c-0.4,0.1-0.9,0.1-1.3,0.4c0.2-0.1,0.3-0.3,0.6-0.4c0.2-0.1,0.5-0.2,0.7-0.3c0.4-0.2,0.9-0.5,1.3-0.8
			c1.9-1.3,3.2-3.4,3.7-5.4C69.3,54.3,69.2,54.1,69.3,53.8z M67.8,54.8c0.1-0.3,0-0.5,0-0.7c0-0.2,0.2-0.4,0.2-0.6
			c0.1-0.6-0.3-1.1,0.1-1.9c0.7,0.4,0.7,1.6,0.6,2.5c-0.1,1.4-1.3,3.5-2.6,4.7c-0.6,0.5-1,0.8-1.6,1.1c-0.6,0.3-1,0.6-1.7,0.7
			c0,0,0,0,0,0c0-0.2,0.5-0.3,0.9-0.6c1.7-1.1,3.1-2.7,3.8-4.3C67.5,55.4,67.7,55,67.8,54.8z M64.6,57.8c0.9-1.1,1.3-2.2,1.6-3.4
			c0.1-0.8-0.2-1.4,0-2.4c0.6,0,0.7,0.5,0.8,1.1c0.1,1.2-0.2,2.9-1.3,4.3c-0.8,1.1-2.3,2.2-3.5,2.5c0,0,0,0,0,0c0,0,0,0,0,0
			C63.1,59.2,63.9,58.6,64.6,57.8z M48.3,22c0.3,0,0.5,0,0.7,0.1c1.4,0.3,1.8,1.5,2,2.5c0.4,1.8,0.2,3.6-0.4,5.1
			c-0.3,0.7-0.7,1.2-1,1.6c-0.1,0.1-0.3,0.2-0.4,0.2c0,0-0.1,0-0.1-0.1c-0.2-0.2,0-0.4,0.2-0.6c0,0,0.1-0.1,0.1-0.1
			c0.9-1.3,1.1-2.8,0.7-4.5c-0.2-1-0.7-2.3-1.9-2.8c-0.4-0.1-0.8-0.2-1.2-0.2c-0.5,0-1,0.1-1.4,0.3C46,22.6,47.1,22,48.3,22z
			 M48.4,27.2c-0.1-1.3-1.4-2.7-2.2-1c-0.2,0.3-0.7,0.4-0.9,0.1c-0.3-0.4,0.1-1,0.4-1.3c0.3-0.3,0.8-0.6,1.2-0.6
			c1.3-0.2,2.2,1.6,2.3,2.8c0.1,1.6-0.6,3-1.7,3.1c-0.7,0.1-1.4-0.5-1.8-1c-0.2-0.3-0.9-1.5-0.1-1.6c0.5,0,0.6,0.5,0.8,0.9
			c0.2,0.4,0.5,0.9,1,0.8C48,29.2,48.5,28.3,48.4,27.2z M31.8,57.7c0.1,0.1,0.2,0.2,0.2,0.3c-0.5,0.1-1-0.1-1.5,0
			c-0.1-0.2-0.2,0-0.4-0.1c-0.9,0-1.8-0.1-2.7-0.1c-0.1-0.1-0.3,0-0.4-0.1c-0.6,0-1.1,0-1.6-0.1c-0.1,0-0.1,0.1-0.1,0.1
			c-1.1-0.2-2,0-3.2-0.2c0.1-0.3,0.5-0.3,0.7-0.6c0.2,0.1,0.3-0.1,0.5,0c0.1,0,0.1-0.1,0.2-0.1c0.2,0.1,0.4-0.1,0.6,0.1
			c0.7-0.2,1.5,0.2,2.2,0.1c0.2,0.2,0.4,0.1,0.6,0.1c0.1,0,0.1,0.1,0.2,0.1c0.2,0,0.3,0,0.5,0c0.3,0,0.6,0.1,0.9,0.1
			c0.4,0,0.8,0.2,1.2,0.2c0.3,0,0.6,0,0.9,0.1c0.1-0.1,0.3,0,0.4,0C31.2,57.6,31.5,57.7,31.8,57.7z M22.2,55.6
			c0.1,0,0.2-0.2,0.2-0.2c0,0,0,0,0.1,0c0,0,0,0,0-0.1l0,0c0-0.1,0,0,0,0l0,0c0,0,0,0,0,0c0,0,0,0,0,0l0,0l0,0c0,0,0,0,0,0l0,0
			c0,0,0,0,0,0c0,0,0,0,0,0c0,0,0,0,0,0c0,0,0,0,0,0c0,0,0,0.1,0,0.1c0,0,0,0,0,0l-0.1,0.1c0,0,0,0,0,0c0,0,0,0-0.1,0.1c0,0,0,0,0,0
			c0,0-0.1,0.1-0.1,0.1l0,0l0,0l0,0c-0.1,0.1-0.2,0.1-0.3,0.2l0,0l0-0.1c0,0-0.1,0,0,0c0,0,0,0,0,0l0,0c0,0,0,0,0,0
			C22.2,55.6,22.2,55.6,22.2,55.6z M24.8,55.6c0,0,0.1,0,0.1,0.1c0.1,0,0.1-0.1,0.2-0.1c0.3,0,0.6-0.1,0.8-0.1
			c0.2,0,0.4,0.1,0.6,0.1c0.5,0,0.9,0.1,1.5,0.3c1.1,0.4,2.3,0.7,3.2,1.2c-0.6-0.1-1.4-0.2-2-0.3c-0.2,0-0.3-0.1-0.5-0.2
			c-0.1,0-0.3,0-0.5,0c-0.2,0-0.4-0.2-0.5-0.2c-0.1,0-0.1,0.1-0.1,0.1c-0.2,0-0.5-0.1-0.7-0.1c-0.2,0-0.5-0.2-0.7-0.1
			c-0.3,0-0.7-0.1-1,0c-0.1,0-0.1-0.1-0.2-0.1c-0.4,0-0.7,0.2-1,0c0,0.1-0.1,0.1-0.1,0.1c-0.1-0.2-0.2,0-0.3,0
			c-0.1-0.3,0.3-0.2,0.4-0.4C24.2,55.8,24.6,55.7,24.8,55.6z M38.5,15.3c-0.3,0-0.7,0-0.9,0.2c-0.2,0-0.4,0-0.6,0
			c-0.1,0-0.2,0.1-0.3,0.2c-0.1,0-0.2,0-0.3,0c-0.1,0-0.2,0.1-0.4,0.1c0,0-0.1,0.1-0.1,0.1c0,0-0.1,0-0.1,0
			c-0.2,0.1-0.4,0.1-0.6,0.2c0,0,0,0,0,0c0,0,0,0,0,0c-5,1.7-13.2,6.2-17.6,19c-0.3,0.9-0.4,1.9-0.7,2.8c0,0.1-0.1,0.3-0.3,0.3
			c-0.3-0.2-0.1-0.9-0.1-1.2c0-0.1,0-0.2,0-0.4c0-0.4,0.1-0.8,0.2-1.2c0.1-0.2,0.1-0.5,0.2-0.7c0-0.1-0.1-0.1,0-0.2
			c0-0.1,0.1-0.2,0.2-0.3c0.1-0.2,0.1-0.4,0.1-0.6c0.1-0.5,0.5-1,0.6-1.5c0.1-0.3,0.1-0.6,0.2-0.9c0.1-0.3,0.1-0.6,0.3-0.8
			c0.1-0.3,0.4-0.5,0.5-0.8c0.1-0.3,0.2-0.6,0.3-0.9c0.1-0.2,0.3-0.3,0.4-0.5c0.1-0.2,0.1-0.4,0.2-0.6c0.1-0.1,0.3-0.3,0.4-0.5
			c0.2-0.3,0.3-0.6,0.5-0.9c0.2-0.2,0.4-0.4,0.5-0.7c0.3-0.3,0.5-0.6,0.7-0.9c0.3-0.1,0.4-0.5,0.6-0.7c0.1-0.1,0.2-0.1,0.2-0.1
			c0.1-0.1,0.2-0.4,0.3-0.5c0.1-0.1,0.3-0.2,0.4-0.3c0.1-0.1,0.1-0.2,0.1-0.3c0.4-0.2,0.4-0.6,0.8-0.7c0.5-0.7,1.3-1.1,1.8-1.8
			c0.1,0,0.1-0.1,0.2-0.1c0.3-0.4,0.9-0.7,1.3-1.1c0.1,0,0.1,0,0.2,0c0.8-0.7,1.7-1.2,2.8-1.7c0.1-0.1,0.2-0.1,0.3-0.2
			c0.4-0.1,0.8-0.3,1.1-0.5c0.3,0,0.4-0.1,0.6-0.3c0.5,0,0.5-0.3,1-0.3c0.1,0,0.1-0.2,0.3-0.2c0.5,0.1,0.7-0.3,1.1-0.2
			c0.2-0.2,0.5-0.3,0.8-0.2c0.2-0.2,0.5-0.1,0.8-0.2c0.1,0,0.2-0.2,0.3-0.2c0.2,0,0.4,0,0.5,0c0,0,0,0,0.1,0c0,0,0,0,0,0
			c0.1,0,0.2-0.1,0.3-0.2c0.1,0,0.2,0,0.3,0c0.1,0,0.2,0,0.3-0.1c0.2,0,0.4-0.1,0.5,0c0.2,0,0.3,0,0.4,0.2
			C39.2,15.1,38.6,15,38.5,15.3z M38.7,3.4c1.2,1.3,2.5,3.2,3,5.3c0.2,0.7,0.6,1.9,0.4,2.7c0,0.1-0.4,0.1-0.4,0
			c-0.1-0.1-0.2-0.3-0.2-0.4c-0.1-0.3,0-0.6-0.1-0.9c-0.1-0.5-0.3-0.9-0.5-1.5c-0.2-0.7-0.6-1.4-0.9-2c-0.5-1.1-1.3-2.1-2-3
			c-0.3-0.4-0.7-0.7-0.9-1.1c0,0,0,0,0-0.1C37.6,2.2,38.3,3,38.7,3.4z M33.6,4.8c0,0,0.1,0,0.1,0c1.1,0.7,1.9,1.7,2.6,3
			c0.6,0.9,0.9,1.8,1.1,2.9c0,0.3,0,0.5,0.1,0.8c0,0.2,0.2,0.6,0.1,0.8c0,0.1-0.1,0.2-0.1,0.3c-0.3,0-0.4-0.2-0.4-0.4
			c-0.2-0.4-0.3-0.9-0.4-1.4c0-0.1-0.1-0.2-0.1-0.3c0-0.1,0-0.1,0-0.2c0-0.1,0-0.1,0-0.2c-0.2-0.7-0.5-1.4-0.9-2
			c-0.5-0.9-0.9-1.6-1.5-2.4c-0.2-0.3-0.5-0.5-0.6-1C33.6,4.9,33.6,4.9,33.6,4.8z M30.8,7.1c0.2,0,0.6,0.2,0.8,0.4
			C32,7.9,32.5,8.4,32.9,9c0.5,0.7,0.8,1.3,1,2.2c0.1,0.3,0.3,0.9,0.3,1.4c0,0.4,0,0.9,0,1.2c-0.5-0.1-0.5-0.5-0.6-1
			c-0.1-0.7-0.5-1.5-0.7-2.2c-0.4-1-1-1.8-1.6-2.5c-0.2-0.2-0.5-0.4-0.5-0.8C30.8,7.2,30.8,7.2,30.8,7.1z M27.9,9.3
			c0.3-0.1,0.4,0.1,0.7,0.3c0.2,0.1,0.4,0.2,0.5,0.3c0.1,0.1,0.4,0.4,0.6,0.6c0.6,0.8,1.1,1.9,1.3,3.1c0.1,0.4,0.3,1.1-0.1,1.1
			c-0.3,0-0.2-0.2-0.3-0.5c0-0.1-0.2-0.2-0.2-0.4c0-0.1,0-0.3-0.1-0.4c-0.1-0.2-0.2-0.3-0.3-0.5c-0.2-0.5-0.3-0.9-0.6-1.4
			c-0.3-0.4-0.6-0.9-0.9-1.2c-0.3-0.3-0.6-0.3-0.7-1C27.9,9.3,27.9,9.3,27.9,9.3z M25.7,11C25.7,11,25.7,11,25.7,11
			c1.2,0.2,2.8,2,3.2,3.6c0,0.2,0,0.4,0,0.5c0,0.2,0.3,1-0.1,1c-0.2,0-0.3-0.2-0.3-0.5c-0.5-1.6-1.2-3.1-2.4-3.9
			c-0.1-0.3-0.3-0.4-0.4-0.6C25.7,11.1,25.7,11.1,25.7,11z M25.1,13.4c0.5,0.5,1.2,1.4,1.5,2.2c0.2,0.5,0.3,1.1,0.2,1.5
			c-0.5,0-0.5-0.4-0.6-0.7c-0.1-0.2-0.2-0.4-0.3-0.7c-0.3-0.7-0.9-1.2-1.3-1.8c-0.3-0.2-0.9-0.4-0.9-0.8
			C23.7,12.3,25,13.2,25.1,13.4z M23.9,14.5c0.5,0.5,1.2,1.4,1.5,2.2c0.2,0.5,0.3,1.1,0.2,1.5c-0.5,0-0.5-0.4-0.6-0.7
			c-0.1-0.2-0.2-0.4-0.3-0.7c-0.3-0.7-0.9-1.2-1.3-1.8c-0.3-0.2-0.9-0.4-0.9-0.8C22.5,13.5,23.8,14.4,23.9,14.5z M22.7,16
			c0.6,0.4,1.3,1.2,1.8,2c0.2,0.5,0.5,1,0.4,1.4c-0.5,0.1-0.5-0.4-0.7-0.7c-0.1-0.2-0.3-0.4-0.4-0.6c-0.4-0.6-1-1.1-1.5-1.6
			c-0.3-0.2-0.9-0.3-1-0.7C21.2,15.1,22.5,15.9,22.7,16z M22.2,17.7c0.4,0.4,0.9,1.3,1.1,1.8c0.1,0.4,0.2,0.8,0.1,1.1
			c-0.3,0-0.5-0.4-0.6-0.6c-0.1-0.3-0.2-0.6-0.4-0.9c-0.3-0.5-0.7-1.1-1.2-1.4c-0.3-0.2-0.8-0.2-0.9-0.7
			C20.9,16.6,21.8,17.2,22.2,17.7z M20,18.4c0.2,0.1,0.4,0.4,0.7,0.5c0.2,0.1,0.4,0.2,0.6,0.3c0.1,0.1,0.2,0.3,0.3,0.5
			c0.3,0.4,0.9,1.1,0.6,1.7c-0.5-0.1-0.6-0.6-0.9-0.9c-0.2-0.2-0.5-0.7-0.8-0.9c-0.3-0.2-1.2-0.6-1.2-1C19.4,18.4,19.7,18.3,20,18.4
			z M18.8,19.8c0.2,0,0.5,0.3,0.7,0.4c0.2,0.1,0.5,0.1,0.6,0.3c0.1,0.1,0.2,0.3,0.4,0.4c0.2,0.2,0.6,0.6,0.7,1c0,0,0,0,0,0
			c0.2,0.3,0.3,0.6,0.2,1c-0.5-0.1-0.6-0.5-0.9-0.8c-0.2-0.2-0.6-0.6-0.9-0.8c-0.3-0.2-1.3-0.5-1.3-0.8c0,0,0,0,0,0
			c-0.1-0.1-0.2-0.2-0.2-0.3C18.2,19.9,18.5,19.8,18.8,19.8z M17.1,21.7c0-0.3,0.3-0.1,0.6-0.2c0.7-0.2,1.7,0.5,2.2,1
			c0.3,0.3,0.8,0.8,0.6,1.4c-0.5,0-0.6-0.5-0.9-0.7c-0.3-0.3-0.9-0.5-1.3-0.7C18.1,22.3,17.1,22,17.1,21.7z M16.6,23.3
			c0.7-0.3,1.8,0.3,2.4,0.7c0.4,0.3,0.9,0.7,0.8,1.3c-0.5,0-0.7-0.4-1-0.6c-0.3-0.2-0.9-0.4-1.4-0.6c-0.3-0.1-1.4-0.3-1.3-0.6
			C16,23.3,16.4,23.4,16.6,23.3z M15.8,25.4c0.4,0.1,0.9,0,1.4,0.1c0.6,0.1,1.3,0.5,1.5,0.9c0.1,0.2,0.3,0.5,0.2,0.8
			c-0.5,0.1-0.7-0.4-1-0.6c-0.2-0.1-0.7-0.2-1-0.3c-0.3-0.1-0.7-0.3-1-0.3c-0.2,0-0.4,0.1-0.6-0.1C15.3,25.7,15.7,25.5,15.8,25.4z
			 M15.4,27.9c0.4-0.1,1.7,0.3,2,0.6c0.2,0.2,0.6,0.7,0.3,1c-0.4,0-0.6-0.4-1-0.6c-0.3-0.1-0.7-0.3-1-0.3c-0.4,0-1,0.2-1.1-0.4
			C15,28.3,15.2,28,15.4,27.9z M14.1,30.8c0.1-0.3,0.4-0.3,0.8-0.3c0,0,0.1,0,0.1,0c0.8,0,1.9,0.5,2,1.3c0,0,0,0,0,0
			c0,0,0.1,0.1,0,0.1c0,0,0,0,0,0c0,0,0,0,0,0c0,0,0,0-0.1,0c0,0,0,0,0,0c-0.6,0.1-1.3-0.4-1.9-0.5c-0.2,0-0.8-0.1-1-0.4
			c0,0,0,0-0.1,0C14.1,30.9,14.1,30.8,14.1,30.8z M13.4,33.3C13.4,33.3,13.4,33.3,13.4,33.3c0.1-0.4,0.4-0.5,0.7-0.6
			c0.5,0,1.2,0.2,1.5,0.5c0.2,0.1,0.3,0.2,0.3,0.4c0,0,0,0,0,0c0.1,0.1,0.1,0.3,0,0.4c0,0,0,0,0,0c-0.2,0.1-0.3-0.1-0.5-0.2
			c0,0,0,0,0,0c0,0-0.1,0-0.1,0c0,0,0,0-0.1,0c0,0,0,0,0,0c0,0,0,0,0,0c-0.2-0.1-0.4-0.2-0.7-0.2c-0.2,0-0.4,0-0.6,0c0,0,0,0,0,0
			c-0.2,0-0.5,0.1-0.6-0.1c0,0,0,0,0,0C13.4,33.4,13.4,33.4,13.4,33.3z M13.8,35.4c0.4-0.1,1.4,0.3,1.5,0.5c0.1,0.1,0.2,0.3,0.1,0.5
			c-0.5,0.2-1-0.4-1.6-0.3c-0.2,0-0.7,0.3-0.7-0.2C13.2,35.7,13.6,35.4,13.8,35.4z M15.1,38.1c-0.5,0-1.1-0.2-1.4-0.5
			C14.2,37.6,14.8,37.7,15.1,38.1z M11.3,39.4c0.1,0,0.1,0,0.2-0.1c1,0.4,2,0.6,2.9,1.1c0.5,0,0.8,0.2,1.1,0.4
			c0.4-0.1,0.4,0.3,0.8,0.2c0.2,0.1,0.3,0.3,0.6,0.2c0.2,0.3,0.7,0.2,0.9,0.5c0.1,0,0.1,0,0.2,0c0.2,0.2,0.3,0.2,0.6,0.3
			c0.2,0.1,0.6,0.4,0.8,0.5c0.1,0,0.2,0,0.3,0c0.1,0,0.2,0.2,0.3,0.2c0.3,0.1,0.7,0.2,0.7,0.6c-0.3,0.1-0.4-0.4-0.7-0.2
			c-0.1-0.1-0.2-0.2-0.4-0.3c-0.3,0.1-0.4-0.1-0.5-0.2c-0.1,0-0.1,0.1-0.2,0.1c-0.2-0.1-0.4-0.3-0.6-0.2c-0.2,0-0.3-0.2-0.4-0.3
			c-0.1,0-0.1,0.1-0.2,0.1c-0.2-0.3-0.6-0.2-0.9-0.5c-0.5,0-0.8-0.4-1.2-0.4c-0.3-0.3-0.6-0.3-1.1-0.4c-0.1-0.1-0.2-0.2-0.3-0.3
			c-0.3,0.1-0.7-0.1-1-0.3c-0.5,0-1-0.2-1.4-0.3c-0.1,0-0.1,0.1-0.2,0.1c-0.6-0.3-1.4-0.2-1.9-0.5c-0.5,0-0.9-0.1-1.4-0.3
			c-0.2,0.1-0.3,0-0.4-0.1c-0.1,0-0.1,0.1-0.2,0.1c-0.6-0.3-1.5-0.1-1.8-0.9C7.6,38.7,9.7,38.8,11.3,39.4z M4,39.9
			c0.1,0,0.1,0.1,0.2,0.1c0.2,0,0.4-0.1,0.5-0.1c0.1,0,0.1,0.1,0.2,0.1c0.2,0,0.3,0,0.5,0c0.1,0,0.2,0.1,0.4,0
			c0.4,0.1,0.7,0.1,1.3,0.2c0,0.1,0.1,0.1,0.2,0.1c0.4,0,0.7,0.2,1.2,0.3c0.1,0,0.2,0,0.4,0c0.1,0,0.2,0.1,0.3,0.2
			c0,0,0.1-0.1,0.1,0c0.1,0,0.2,0.1,0.3,0.1c0.1,0,0.1,0,0.2,0c0.1,0,0.1,0.1,0.2,0.1c0.2,0.1,0.4,0,0.6,0.2c0.3,0,0.6,0,0.9,0.2
			c0.2-0.1,0.3,0.1,0.4,0.1c0.1,0,0.1-0.1,0.1,0c0.5,0.3,1.2,0.3,1.8,0.6c0,0,0.1-0.1,0.2-0.1c0.7,0.4,1.6,0.4,2.3,0.8
			c0.1,0,0.1-0.1,0.2-0.1c0.3,0.1,0.7,0.3,1,0.3c0.1,0.1,0.2,0.2,0.3,0.2c0.5-0.1,0.7,0.3,1.2,0.2c0.2,0.1,0.3,0.3,0.5,0.2
			c0.3,0.3,1,0.2,1.3,0.6c0.3-0.1,0.4,0.1,0.5,0.2c0.1,0,0.1-0.1,0.2-0.1c0.1,0.2,0.3,0.3,0.3,0.7c-0.2,0-0.2-0.2-0.4-0.3
			c-0.3,0.3-0.4-0.3-0.7-0.1c-0.2,0-0.2-0.2-0.3-0.3c-0.2,0.2-0.4,0-0.5-0.2c-0.1,0-0.1,0.1-0.2,0.1c-0.2-0.2-0.6-0.1-0.8-0.4
			c-0.1,0-0.1,0.1-0.2,0.1c-0.1-0.1-0.2-0.2-0.3-0.2c-0.2,0.1-0.3-0.1-0.5-0.1c-0.3,0.2-0.4-0.2-0.6-0.1c-0.1,0-0.2-0.1-0.3-0.2
			c-0.4,0-0.7-0.1-0.9-0.2c-0.1,0-0.1,0.1-0.2,0.1c-0.8-0.3-1.7-0.4-2.5-0.7c-0.5,0-0.9-0.1-1.4-0.3c-0.6,0-1.1-0.2-1.7-0.4
			c-0.5,0.1-1-0.3-1.4-0.2c-0.2,0-0.3-0.3-0.5-0.1c-0.2-0.2-0.5,0-0.6-0.2c-0.5,0.1-0.9-0.2-1.4-0.1c-0.4-0.2-1-0.2-1.4-0.2
			c-0.4-0.2-0.8-0.1-1.2-0.1C3,40.3,3.3,39.8,4,39.9z M3,43.1c0-0.3,0-0.5,0.1-0.6c-0.2-0.7,0.5-0.7,0.8-0.5C4,42,4,41.9,4.1,41.9
			c0.4,0.2,0.8,0,1.3,0.2c0.1,0,0.1-0.1,0.2-0.1c0.2,0.1,0.5,0.1,0.7,0.1c0.5,0.2,1.1,0.1,1.5,0.4c0.4-0.1,0.6,0.1,1,0.1
			c0.1,0,0.2,0.1,0.3,0.2c0.1,0,0.1-0.1,0.2-0.1c0.6,0.3,1.4,0.2,2,0.5c0.5-0.1,0.9,0.3,1.4,0.2c0.1,0.1,0.2,0.1,0.3,0.2
			c0.3-0.2,0.3,0.2,0.6,0c0.1,0,0.2,0.1,0.3,0.2c0.4-0.1,0.6,0.2,1,0.1c0.1,0,0.2,0.1,0.3,0.2c0.7,0,1.2,0.3,1.9,0.3
			c0.1,0,0.2,0.1,0.3,0.2c0.1,0,0.1-0.1,0.2-0.1c0.2,0.2,0.6,0,0.7,0.3c0.1,0,0.1,0,0.1-0.1c0.2,0.2,0.6,0.1,0.8,0.3
			c0.1,0,0.1,0,0.1-0.1c0.1,0,0.2,0.1,0.3,0.2c0.2-0.2,0.4,0,0.5,0.2c0.1,0,0.1-0.1,0.2-0.1c0.2,0.3,0.6,0.1,0.7,0.3
			c0.1,0,0.1-0.1,0.2-0.1c0.1,0,0.2,0.1,0.3,0.2c0.3-0.2,0.5,0.2,0.6,0.5c-0.3,0.2-0.4-0.3-0.7-0.1c-0.2-0.3-0.5-0.1-0.7-0.4
			c-0.1,0-0.1,0-0.2,0.1c-0.2-0.1-0.2-0.2-0.3-0.3c-0.1,0-0.1,0.1-0.2,0.1c-0.2-0.2-0.6,0-0.7-0.3c-0.2,0.2-0.4,0-0.4-0.1
			c-0.2,0.1-0.3,0.1-0.5-0.1c-0.1,0-0.1,0.1-0.1,0.1c-0.3-0.2-0.8-0.1-1.1-0.3c-0.2,0.1-0.3,0-0.4-0.1c-0.1,0-0.1,0.1-0.2,0.1
			c-0.4-0.3-1.1-0.1-1.5-0.4c-0.1,0-0.1,0-0.1,0.1c-0.1,0-0.2-0.1-0.3-0.2c-0.1,0-0.1,0.1-0.2,0.1c-0.5-0.2-1-0.2-1.6-0.3
			c-0.5-0.3-1.4-0.1-1.9-0.4c-0.5,0.1-0.9-0.2-1.3-0.1c-0.1,0-0.2-0.1-0.3-0.2c-0.1,0-0.1,0.1-0.2,0.1c-0.3-0.2-0.8,0-1-0.2
			c-0.6,0-1.2,0-1.8-0.1c-0.6,0.1-1.2,0.1-1.7,0C4,43.3,3.5,43.2,3,43.1z M4,45.9c-0.2-0.3-0.3-1-0.2-1.2c0.7-0.1,1.2-0.1,1.9-0.1
			c0.1,0,0.1,0.1,0.3,0.1c0.3-0.1,0.5-0.1,0.7,0c0.4,0.1,0.8-0.1,1.1,0.1c0.1,0,0.1-0.1,0.1-0.1c0.3,0.1,0.5,0.1,0.8,0.1
			c0.1,0,0.1,0.1,0.2,0.1c0.5,0,1,0,1.5,0.2c0.1,0,0.1-0.1,0.2-0.1c0.9,0.1,1.7,0.2,2.6,0.3c0.1,0,0.1,0.1,0.2,0.1
			c0.1,0,0.1-0.1,0.2-0.1c0.3,0.3,0.7,0,1,0.3c0.6,0,1.1,0.1,1.6,0.2c0.2-0.2,0.4,0.2,0.5,0c0.1,0,0.1,0.1,0.2,0.1
			c0.3,0,0.6-0.1,0.8,0.1c0.4,0,0.8,0.1,1.2,0.2c0.3,0,0.6,0,0.8,0.1c0.3-0.2,0.3,0.2,0.6,0c0.1,0,0.2,0.1,0.2,0.2
			c0.2-0.2,0.4,0,0.5,0.1c0.1,0,0.1-0.1,0.2-0.1c0.1,0.1,0.1,0.1,0.2,0.2c0.1,0,0.1-0.1,0.2-0.1c0,0.1,0.1,0.1,0.2,0.2
			c0.1,0,0.1-0.2,0.2-0.1c0.1,0.1,0.1,0.3,0.1,0.4c-0.2,0.1-0.5,0.1-0.5-0.1c-0.1,0.2-0.3,0-0.4-0.1c-0.1,0-0.1,0.1-0.2,0.1
			c-0.2-0.2-0.5,0-0.7-0.3c-0.1,0-0.1,0.1-0.2,0.1c-0.1-0.1-0.2-0.1-0.2-0.2c-0.6,0.2-1.2-0.2-1.7-0.1c-0.1,0-0.1-0.1-0.2-0.2
			c-0.2,0.1-0.4-0.1-0.6,0.1c-0.7-0.3-1.7-0.1-2.4-0.4c-0.4,0.1-0.9-0.2-1.3,0c-0.5-0.2-1.2,0-1.7-0.2c-0.6,0.1-1.1-0.1-1.6,0
			c0-0.1-0.1-0.1-0.2-0.1c-0.2,0.2-0.6-0.1-0.8,0.1c-0.4-0.2-0.9-0.1-1.4-0.1c-0.6-0.2-1.3,0.1-1.9-0.1C5.5,45.9,4.7,45.7,4,45.9z
			 M5.4,48.2c-0.2-0.2-0.6-0.1-0.6-0.4c-0.1-0.2,0.1-0.4,0.2-0.6c0.6-0.2,1,0,1.6-0.1c0.8,0.2,1.7-0.1,2.6,0.1
			c0.2-0.1,0.4-0.2,0.6,0c0.2-0.1,0.5-0.1,0.7,0c0.1-0.1,0.2-0.1,0.3,0c0.1,0,0.1-0.1,0.1-0.1c0.5,0.1,1-0.1,1.5,0.1
			c0.4-0.1,1-0.1,1.4,0c0.7,0,1.5,0,2.1,0.2c0.1,0,0.1-0.1,0.2-0.1c0.7,0.1,1.4,0.2,2.2,0.2c0.1,0,0.1,0.1,0.2,0.1
			c0.2-0.2,0.4,0.1,0.5-0.1c0.1,0.1,0.1,0.1,0.2,0.2c0.1,0,0.1-0.1,0.2-0.1c0.1,0.1,0.3,0.2,0.3,0c0.1,0,0.2,0.1,0.3,0.2
			c0.2-0.3,0.3,0.1,0.5-0.1c0.2,0.1,0.6,0.2,0.8,0.1c0.1,0,0.2,0.1,0.2,0.2c0.2-0.2,0.3,0.1,0.6-0.1c0,0.2,0,0.4-0.2,0.5
			c-0.1,0-0.2-0.1-0.3-0.2c-0.2,0.2-0.4-0.2-0.6,0.1c0-0.1-0.1-0.1-0.2-0.2c-0.1,0-0.1,0.1-0.2,0.1c-0.3-0.2-0.7,0-1-0.2
			c-0.1,0-0.1,0.1-0.2,0.1c-0.1,0-0.1-0.1-0.2-0.1c0,0-0.1,0.1-0.1,0.1c-0.5-0.2-1.1,0-1.6-0.2c-0.1,0-0.1,0.1-0.1,0.1
			c-0.2-0.1-0.2-0.1-0.4,0c-0.5-0.2-1.3,0-1.9-0.2c-0.2,0.1-0.3-0.1-0.5,0.1c-1-0.2-2.2,0-3.1,0c-0.1,0-0.1,0.1-0.2,0.1
			c-0.3-0.1-0.6,0.1-0.8-0.1c-0.3,0.3-1,0-1.3,0.3c-0.1-0.1-0.4,0.1-0.5-0.1C8.4,48.1,8,48.2,7.5,48C6.8,48.2,6.2,48.1,5.4,48.2z
			 M8,50.3c-0.5-0.1-1-0.6-1.4-0.9c0.1,0,0.2,0,0.2,0.1c0.6-0.3,1.1-0.1,1.6-0.3c0.3,0.2,0.6-0.1,0.8,0.1c0.2-0.1,0.4,0,0.5-0.1
			c0.2,0.1,0.5,0,0.6-0.1c0.4,0,0.9,0,1.4-0.1c0.1,0,0.3-0.1,0.5-0.1c0.1,0,0.1,0.1,0.2,0.1c0.2,0,0.3-0.2,0.5-0.1
			c0.1,0,0.1,0.1,0.2,0.1c0.4,0,0.9-0.1,1.3-0.2c0.1,0,0.1,0.1,0.2,0.1c0.3-0.2,0.8,0.1,1.2-0.1c0.2,0.1,0.3-0.1,0.5,0.1
			c0.1,0,0.1-0.1,0.1-0.1c0.1,0,0.1,0.1,0.2,0.1c0.5-0.2,1.1,0.1,1.5-0.1c0.2,0.1,0.5,0.1,0.7,0c0,0,0.1,0.1,0.2,0.1
			c0.1,0,0.1-0.1,0.2-0.1c0,0.1,0.1,0.1,0.2,0.2c0.1-0.1,0.2-0.2,0.3,0c0.1,0,0.1-0.1,0.2-0.1c0,0.1,0.1,0.1,0.1,0.1
			c0.1,0,0.1-0.1,0.2-0.1c0,0.1,0.1,0.1,0.2,0.1c0.1,0,0.1-0.1,0.1-0.1c0.1,0,0.2,0.1,0.2,0.1c0.1,0,0.1-0.1,0.1-0.1
			c0.1,0,0.1,0.1,0.2,0.2c0.1,0,0.1-0.2,0.2-0.2c0,0.1,0.1,0.1,0.1,0.1c0.2-0.1,0.2-0.2,0.4,0c0.1,0,0.1-0.1,0.1-0.1
			c0.2,0,0.2,0.2,0.3,0c0,0.2,0,0.3-0.1,0.4c-0.1,0-0.2-0.1-0.3-0.1c-0.1,0.1-0.3,0-0.4,0.1c-0.1,0-0.2-0.1-0.3-0.2
			c0,0-0.1,0.1-0.1,0.1c-0.3-0.2-0.6,0.2-0.9-0.1c-0.2,0.2-0.6-0.1-0.8,0.1c0-0.1-0.1,0-0.2-0.1c-0.1,0-0.1,0.1-0.2,0.1
			c-0.2-0.3-0.6,0.1-0.8-0.1c0,0-0.1,0-0.1,0.1c-0.1,0-0.1,0-0.2-0.1c-0.7,0.2-1.6,0-2.3,0.2c-0.2-0.1-0.3,0.1-0.5,0
			c-2.2,0.4-4.1,0.7-6.2,1C8.4,50.2,8.2,50.4,8,50.3z M16.8,52.9c-0.7,0.3-1.2,0.4-1.9,0.5c-0.3,0-0.5,0.1-0.7,0.2c-0.3,0-0.7,0-1,0
			c-0.1,0-0.1-0.1-0.2-0.1c-0.1,0-0.1,0-0.2,0.1c-0.4-0.2-0.8-0.2-1.3-0.2c-0.1-0.2-0.7-0.2-0.6-0.5c0.1-0.1,0.2,0.2,0.4-0.1
			c0.1,0,0.2,0,0.2,0.1c0.4-0.2,0.9,0,1.3,0c0.1,0,0.1-0.1,0.2-0.1c0.3,0,0.9-0.1,1.3-0.1c0.3,0,0.6-0.2,0.9-0.2
			c0.3,0,0.6-0.2,0.8-0.2c0.1,0,0.1,0.1,0.1,0.1c0.2,0,0.4-0.2,0.7-0.2c0.2-0.1,0.5-0.1,0.7-0.1c0.2-0.1,0.4-0.2,0.7-0.2
			c0.7-0.2,1.8-0.4,2.6-0.5C19.7,51.9,18.2,52.3,16.8,52.9z M20.4,50.3c-0.2,0.1-0.4,0.2-0.6,0.1c-0.3,0.2-0.7,0.1-1.1,0.2
			c-0.5,0.1-1,0.3-1.5,0.4c-0.3,0-0.8,0.2-1.1,0.2c-0.2,0-0.4,0-0.6,0.1c-0.1,0-0.1,0.1-0.2,0.1c-0.3,0.1-0.6-0.1-0.8,0.2
			c-0.9,0-1.9,0.5-2.8,0.3c-0.2,0.2-0.5,0-0.7,0.1c-0.1,0-0.2-0.1-0.3-0.2c-0.3,0.1-0.3-0.1-0.6,0c-0.2-0.3-0.7-0.4-0.9-0.7
			c1.5-0.3,2.6-0.1,4-0.5c0.1,0,0.1,0,0.2,0.1c0.7-0.2,1.3-0.3,2-0.3c0.1-0.1,0.3,0,0.5-0.1c1.2,0,2.3-0.3,3.4-0.3
			c0.2-0.2,0.4,0.1,0.5-0.1c0.6,0.1,1.3-0.2,2-0.1c0,0.2-0.2,0.3-0.3,0.5C21.2,50.3,20.8,50.4,20.4,50.3z M21.5,52.1L21.5,52.1
			L21.5,52.1c0-0.1-0.1-0.1,0-0.1C21.4,52,21.4,52.1,21.5,52.1L21.4,52c0,0,0,0,0,0c0-0.1,0-0.1-0.1-0.2c0.1,0,0.2-0.2,0.3-0.2
			c0,0,0-0.1,0.1,0c0,0,0-0.1,0-0.1l0,0c0-0.1-0.1,0-0.1,0l0,0c0,0,0,0,0,0c0,0,0,0,0,0l0,0l0,0c0,0,0,0,0,0l0.1,0c0,0,0,0,0,0
			c0,0,0,0,0,0c0,0,0,0,0,0.1c0,0,0,0,0.1,0c0,0.1,0,0.1,0.1,0.2c0,0,0,0,0.1,0.1L22,51.7c0,0,0,0,0.1,0c0,0.1,0,0.1-0.1,0.1
			c0,0,0,0,0,0c-0.1,0-0.1,0-0.1,0.1l0,0l0,0l0,0C21.7,52,21.6,52.1,21.5,52.1z M21.8,53.9L21.8,53.9L21.8,53.9
			C21.8,53.8,21.7,53.9,21.8,53.9C21.8,53.8,21.7,53.9,21.8,53.9L21.8,53.9C21.7,53.8,21.8,53.8,21.8,53.9c0-0.1,0-0.2-0.1-0.2
			c0.1,0,0.2-0.2,0.2-0.2c0,0,0,0,0.1,0c0,0,0,0,0-0.1l0,0c0-0.1,0,0-0.1,0l0,0c0,0,0,0,0,0c0,0,0,0,0,0l0,0l0,0c0,0,0,0,0,0l0,0
			c0,0,0,0,0,0c0,0,0,0,0,0c0,0,0,0,0,0c0,0,0,0,0,0c0,0,0,0.1,0,0.1c0,0,0,0,0,0l-0.1,0.1c0,0,0,0,0,0c0,0.1,0,0-0.1,0.1
			c0,0,0,0,0,0c0,0-0.1,0.1-0.1,0.1l0,0l0,0l0,0C22,53.8,21.9,53.8,21.8,53.9z M21.2,58.2c0.2,0,0.3,0.1,0.5,0
			c1.6,0.1,3.2,0.3,4.9,0.5c0.1-0.1,0.2,0.1,0.4,0c0.6,0.2,1.3-0.1,1.8,0.1c0,0,0.1,0,0.1-0.1c0,0.1,0.1,0.1,0.1,0.1
			c0.2-0.2,0.5,0.1,0.6-0.1c0.1,0,0.1,0.1,0.2,0.1c0-0.1,0.1-0.1,0.1-0.1c0.2,0.1,0.5-0.1,0.7,0c0.2-0.2,0.5,0.1,0.7-0.1
			c0,0,0,0.1,0.1,0.1c0.1-0.1,0.1-0.1,0.2-0.1c0.1,0.1,0.2,0,0.3,0.1c0-0.1,0.1-0.1,0.2-0.1c0,0.1,0.1,0.2,0.1,0.3
			c-0.1-0.1-0.1,0-0.3,0c-0.1,0-0.1-0.1-0.1-0.1c-0.1,0.1-0.1,0.1-0.3,0c0,0.1-0.1,0.1-0.1,0.1c-0.1,0-0.1-0.1-0.2-0.1
			c0,0.1,0,0.1-0.1,0.1c-0.1,0-0.1-0.1-0.1-0.1c0,0.1-0.1,0.1-0.1,0.1c0,0,0-0.1-0.1-0.1c0,0-0.1,0.1-0.1,0.1
			c-0.1,0-0.1-0.1-0.2-0.1c0,0.1-0.1,0.1-0.1,0.1c-0.1,0-0.1-0.1-0.2-0.1c-0.1,0.1-0.2,0.1-0.2,0c0,0.1-0.1,0.1-0.1,0.1
			c-0.1,0-0.1-0.1-0.2-0.1c0,0-0.1,0-0.1,0.1c-0.1-0.1-0.4-0.1-0.5,0c-0.4-0.1-0.8,0.1-1.2,0c0,0-0.1,0.1-0.1,0.1
			c-0.1,0,0-0.1-0.1-0.1c-0.1,0.1-0.2,0-0.4,0.1c-0.3-0.1-0.6,0.1-0.9,0c0,0-0.1,0.1-0.1,0.1c-0.3,0-0.7-0.1-1-0.1
			c-0.1,0-0.1,0.1-0.1,0.1c-0.1,0-0.2-0.1-0.4-0.1c0,0-0.1,0.1-0.1,0.1c-0.1,0-0.3-0.1-0.4-0.1c-0.3,0-0.7,0-1.1,0
			c-0.1-0.1-0.4-0.1-0.5,0c-0.1-0.1-0.2,0-0.4-0.1c-0.2,0.1-0.4,0-0.6,0.1c-0.4-0.1-0.8,0.1-1.3-0.1c0,0-0.1,0.1-0.2,0.1
			C20.4,58.8,20.8,58.3,21.2,58.2z M18.8,60.4c0-0.2,0.4-0.2,0.5-0.4c0.6,0.1,1.1-0.1,1.6,0c0.4-0.1,0.7,0,1,0
			c0.1-0.1,0.3,0,0.4-0.1c0.3,0.2,0.8,0,1,0.1c0.2-0.2,0.4,0,0.6-0.1c0.1,0,0.1,0.1,0.1,0.1c0.7-0.1,1.7,0,2.4-0.2
			c0.1,0.1,0.2,0,0.4,0c0.4-0.2,1.1,0,1.5-0.3c0.1,0.1,0.2,0,0.3,0c0.1,0,0,0.1,0.1,0.1c0.4-0.2,0.9,0,1.3-0.2c0,0,0.1,0.1,0.1,0.1
			c0.1,0,0.1-0.1,0.1-0.1c0.1,0,0.1,0.1,0.1,0.1c0.2-0.2,0.5,0,0.7-0.2c0.1,0,0.1,0.1,0.2,0.1c0-0.1,0.1-0.1,0.1-0.1
			c0.2,0.2,0.3-0.1,0.4,0c0.1,0,0.1-0.1,0.2-0.1c0.1,0.1,0.2,0.2,0.2,0.4c-0.2-0.1-0.3,0.1-0.4,0c0,0.1-0.1,0.1-0.2,0.1
			c-0.2-0.1-0.4,0-0.6,0.1c-0.2-0.2-0.2,0.2-0.4,0c0,0.1-0.1,0.1-0.2,0.1c0-0.1-0.2,0-0.3,0c-0.1,0-0.1-0.1-0.1-0.1
			c-0.1,0-0.1,0.1-0.1,0.1c-0.1-0.1-0.3,0-0.4-0.1c-0.1,0-0.1,0.1-0.2,0.1c-0.6,0-1.1,0.1-1.7,0.3c-0.1,0-0.1-0.1-0.1-0.1
			c-0.5,0.2-1.1,0.2-1.6,0.2c-0.3,0.1-0.8,0.2-1.1,0.1c-0.4,0.1-0.8,0-1.2,0.1c-0.1,0,0-0.1-0.1-0.1c-0.1,0.1-0.2,0.1-0.2,0
			c-0.1,0.1-0.4,0.1-0.5,0c-0.2,0.1-0.3,0-0.5,0c-0.6,0.2-1.3,0-2,0.2c-0.5,0-0.8,0.1-1.3,0C18.9,60.7,18.8,60.6,18.8,60.4z
			 M30.9,63.6c-0.1,0-0.2,0.2-0.2,0.2c-0.1,0-0.2,0-0.2,0c-0.2,0.1-0.5,0.3-0.6,0.4c-0.2,0.1-0.4,0.1-0.5,0.2c-0.1,0-0.1,0-0.2,0
			c-0.2,0.2-0.5,0.2-0.7,0.4c-0.2,0-0.3,0.1-0.4,0.2c-0.3-0.1-0.3,0.2-0.6,0.2c-0.2,0.2-0.5,0.3-0.8,0.4c-0.7,0.4-1.5,0.7-2.2,1
			c-0.1,0-0.1-0.1-0.2,0c-1.2,0.6-2.8,0.7-4.1,1.1c0.2-0.6,0.9-0.5,1.4-0.8c0.1,0,0.1,0.1,0.2,0c0.1-0.1,0.2-0.2,0.3-0.1
			c0.3-0.2,0.7-0.3,1-0.3c0.4-0.3,1-0.2,1.5-0.5c0.1,0,0.1,0.1,0.1,0c0.3-0.1,0.7-0.3,1-0.3c0.2-0.1,0.5-0.4,0.8-0.3
			c0.1-0.1,0.2-0.1,0.2-0.2c0.4-0.1,0.6-0.1,0.8-0.4c0.4,0,0.6-0.3,1-0.3c0.2-0.2,0.5-0.2,0.7-0.4c0.1,0,0.1,0,0.2,0
			c0.1-0.1,0.2-0.2,0.3-0.2c0.2,0.1,0.3-0.1,0.4-0.2c0.1,0,0.1,0.1,0.1,0.1c0.1-0.1,0.2-0.3,0.4-0.2c0.1-0.1,0.2-0.2,0.3-0.3
			c0.3,0.1,0.3-0.3,0.5-0.2C31.4,63.5,31.1,63.5,30.9,63.6z M31.8,62.4c-0.1,0-0.1,0-0.2-0.1c-0.1,0.1-0.2,0.3-0.4,0.2
			c-0.2,0.3-0.7,0.2-1,0.5c-0.2-0.1-0.3,0.1-0.4,0.2c-0.4,0-0.6,0.3-0.9,0.2c-0.1,0.1-0.1,0.1-0.2,0.2c-0.2,0-0.5,0.2-0.8,0.3
			c-0.1,0-0.1-0.1-0.1,0c-0.5,0.3-1.2,0.4-1.7,0.8c-0.1,0-0.1,0-0.1,0c-0.4,0.2-0.9,0.3-1.4,0.5c-0.1,0-0.1,0-0.1,0
			c-0.1,0-0.2,0.2-0.3,0.1c-0.2,0.1-0.4,0.2-0.7,0.2c-0.1,0.1-0.2,0.1-0.4,0.2c-0.1,0-0.1,0.1-0.2,0.1c0,0-0.1,0-0.1,0
			c-0.1,0-0.1,0.1-0.2,0.1c0,0-0.1,0-0.1,0c-0.1,0-0.1,0.1-0.2,0.1c-0.1,0-0.2,0-0.3,0c-0.3,0.1-0.6,0.2-0.9,0.2
			c0,0-0.1,0.1-0.1,0.1c-0.4,0.1-0.7,0.1-1,0.2c-0.1-0.1-0.2,0-0.3,0c-0.1,0-0.2,0-0.4,0c-0.1,0-0.1,0.1-0.1,0.1c-0.1,0-0.3,0-0.4,0
			c-0.1,0-0.1,0.1-0.1,0.1c-0.5,0.1-0.7-0.3-0.4-0.7c0.3,0,0.6,0,0.9-0.1c0.4,0,0.8,0,1.1-0.2c0.4,0.1,0.7-0.2,1.1-0.2
			c0.1-0.2,0.4,0,0.5-0.2c0.2,0.1,0.2-0.1,0.4-0.1c0.3,0.1,0.7-0.2,1.1-0.2c0.5-0.2,0.8-0.3,1.3-0.4c0.3-0.2,0.6-0.3,1-0.3
			c0.6-0.3,1.3-0.4,1.9-0.7c0.1,0,0.1,0.1,0.1,0c0.2-0.1,0.4-0.2,0.7-0.2c0.1-0.1,0.1-0.1,0.3-0.2c0.2,0.1,0.2-0.2,0.5-0.1
			c0.1-0.1,0.2-0.2,0.4-0.1c0.1-0.1,0.1-0.1,0.2-0.2c0.1,0,0.1,0.1,0.1,0.1c0.2-0.2,0.4-0.1,0.6-0.3c0.1,0,0.1,0.1,0.1,0.1
			c0.1-0.1,0.2-0.3,0.4-0.2c0.1-0.1,0.1-0.2,0.2-0.2c0.2,0.1,0.3-0.3,0.5-0.1c0.1-0.1,0.2-0.2,0.3-0.2C32,62.1,31.9,62.2,31.8,62.4z
			 M31.8,61.2c-0.1,0.1-0.1,0.2-0.2,0.2c-0.1,0-0.1,0-0.1,0c-0.1,0.2-0.4,0.1-0.6,0.3c-0.1,0-0.1-0.1-0.2-0.1
			c-0.1,0.1-0.2,0.3-0.4,0.2c0,0.1-0.1,0.1-0.2,0.2c0,0-0.1-0.1-0.1-0.1c-0.1,0.2-0.4,0.1-0.6,0.3c0,0-0.1-0.1-0.1-0.1
			c-0.1,0.2-0.4,0.1-0.5,0.3c-0.1,0-0.1,0-0.1,0c-0.1,0-0.1,0.1-0.3,0.2c-0.5,0-0.9,0.3-1.4,0.3c-0.1,0-0.1,0.1-0.2,0.1
			c-0.3,0-0.5,0.2-0.8,0.1c-0.1,0-0.1,0.1-0.2,0.1c-0.2-0.1-0.2,0.2-0.4,0c-0.1,0.1-0.1,0.1-0.2,0.2c-0.4,0-0.7,0.3-1.1,0.2
			c-0.5,0.3-1.1,0.2-1.5,0.5c-0.1,0-0.1-0.1-0.1,0c-0.1,0-0.1,0.1-0.2,0.1c-0.3,0-0.5,0.2-0.8,0.1c-0.3,0.3-0.8,0.2-1.2,0.4
			c-0.2,0-0.4,0-0.6,0.1c-0.1,0-0.1-0.1-0.1-0.1c-0.3,0.2-0.7,0.1-1,0.2c-0.1,0-0.1-0.1-0.2-0.1c-0.2,0.2-0.8,0.2-0.6-0.4
			c-0.1-0.1-0.1-0.2-0.1-0.4c0.4-0.1,0.8-0.2,1.2-0.1c0.4-0.1,0.9-0.2,1.3-0.1c0.4-0.1,0.9-0.2,1.4-0.2c0.2-0.2,0.6,0,0.8-0.2
			c0.1,0,0.1,0,0.1,0c0.1,0,0.1-0.1,0.2-0.1c0.3,0.1,0.6-0.2,1-0.1c0.4-0.3,1.1-0.1,1.5-0.4c0.4-0.1,0.9-0.1,1.2-0.3
			c0.1,0,0.1,0.1,0.1,0c0.1,0,0.1-0.1,0.2-0.2c0,0,0.1,0.1,0.1,0.1c0.3-0.2,0.8-0.1,1.1-0.4c0.1,0,0.1,0.1,0.2,0.1
			c0.1-0.1,0.2-0.2,0.3-0.1c0.2-0.2,0.6-0.1,0.8-0.3c0.1,0,0,0.1,0.1,0.1c0.1-0.1,0.2-0.2,0.4-0.1c0-0.1,0.2-0.2,0.3-0.1
			c0.1-0.2,0.4-0.1,0.6-0.3c0.1,0,0.1,0.1,0.1,0.1c0.1-0.1,0.1-0.2,0.3-0.2c0,0,0.1,0.1,0.1,0.1c0.1-0.2,0.4-0.1,0.6-0.3
			c0.2,0.1,0.3-0.2,0.5-0.1C32.3,61.1,32.1,61.4,31.8,61.2z M32.3,60.4c-0.1,0.1-0.1-0.1-0.2-0.1c0,0.1-0.1,0.1-0.1,0.1
			c-0.1,0-0.1-0.1-0.2-0.1c-0.1,0-0.1,0.1-0.1,0.1c-0.1,0-0.1-0.1-0.2-0.1c-0.1,0.1-0.2,0.3-0.4,0.1c0,0.1-0.1,0.1-0.2,0.1
			c-0.2-0.1-0.2,0.2-0.4,0c-0.2,0.1-0.4,0.2-0.6,0.1c-0.3,0.1-0.6,0.2-0.9,0.2c-0.2,0.1-0.4,0.1-0.6,0.1c-0.1,0-0.1,0.1-0.2,0.1
			c-0.1-0.2-0.2,0.1-0.4,0c-0.4,0.1-0.7,0.2-1.2,0.3c-0.2,0.2-0.6,0-0.8,0.3c-0.1,0-0.1-0.1-0.2-0.1c-0.1,0-0.1,0.1-0.1,0.1
			c-0.8,0.1-1.3,0.2-2,0.3c-0.1,0-0.1-0.1-0.1,0c-0.4,0.1-0.7,0.2-1.1,0.2c-0.1,0-0.1,0.1-0.1,0.1c-0.2,0-0.4,0-0.6,0.1
			c-0.1,0,0-0.1-0.1-0.1c-0.2,0.1-0.6,0.1-0.9,0.1c-0.1,0.1-0.3,0.1-0.5,0.1c-0.1,0-0.1,0.1-0.2,0.1c-0.5,0-0.9,0.1-1.5,0
			c-0.1-0.2-0.1-0.8,0.1-1c0.5,0.2,1.2-0.1,1.7,0c0.4-0.2,1,0,1.5-0.2c0.4,0,0.8,0,1.1-0.1c0.2,0.2,0.5-0.1,0.6,0
			c0,0,0.1-0.1,0.1-0.1c0.4,0,0.8-0.1,1.3-0.1c0.4-0.2,0.9-0.1,1.3-0.3c0.3,0.1,0.7-0.2,1-0.1c0.6-0.2,1.4-0.2,1.9-0.4
			c0.2,0.1,0.2-0.1,0.4,0c0.1,0,0.1-0.1,0.2-0.1c0.4,0.1,0.9-0.3,1.3-0.2c0-0.1,0.1-0.1,0.1-0.1c0.1,0,0.1,0.1,0.1,0.1
			c0.1-0.2,0.4-0.1,0.5-0.2c0.1,0,0.1,0.1,0.2,0.1c0.1-0.1,0.2-0.2,0.3-0.1C32,60,32.3,60,32.4,60C32.4,60.2,32.4,60.3,32.3,60.4z
			 M37.9,75.1c-0.5-0.3-0.6-1-0.9-1.5c-0.1-0.1-0.2-0.2-0.3-0.4c-0.2-0.3-0.2-0.7-0.3-1.1c-0.1-0.3-0.2-0.9-0.2-1.4
			c0-0.5,0.1-1,0.2-1.6c0-0.6,0.2-1.2,0.4-1.5c0,0,0,0,0.1,0c0.2,0.3,0,0.6,0,1c0,0.3,0.1,0.5,0.2,0.8c0,0.3,0,0.6,0,0.9
			c0,0.2,0.1,0.4,0.1,0.6c0.1,0.7,0,1.5,0.2,2.2C37.6,73.9,38.1,74.4,37.9,75.1z M39.7,76.9c-0.5-0.2-0.8-0.9-1-1.5
			c-0.1-0.2-0.3-0.5-0.4-0.9c-0.3-1-0.4-2.2-0.5-3.4c0-0.2-0.1-0.4-0.1-0.6c0-0.8,0.4-1.6,0.5-2.3c0,0,0-0.1,0.1-0.1c0,0,0,0,0,0
			c0.2,0,0.3,0.4,0.3,0.5c0.1,0.5-0.3,1.2-0.3,1.7c0,1.5,0.3,3.3,0.7,4.6C39.3,75.7,39.7,76.3,39.7,76.9z M41.2,77.9
			c-1.1-1.2-2-2.9-2-5.2c0-0.8,0-1.8,0.4-2.3c0,0,0.1,0,0.1-0.1c0,0,0,0,0,0c0,0,0,0,0,0c-0.1,0.8,0.2,1.7,0.3,2.5
			c0.1,0.5,0,1,0.1,1.5c0,0.2,0.2,0.5,0.2,0.7c0.3,1,0.7,1.6,1.2,2.4c0.2,0.3,0.6,0.6,0.6,1C41.7,78.5,41.5,78.2,41.2,77.9z
			 M43.7,78.9c-0.3-0.2-0.6-0.5-0.8-0.7c-0.7-0.7-1.2-1.7-1.6-2.6c-0.1-0.5-0.2-1-0.4-1.4c0.2-0.3-0.2-0.6-0.2-0.9
			c0-0.1,0-0.3,0-0.5c0-0.2-0.1-0.4-0.1-0.6c0-0.5,0.2-1.2,0.4-1.5c0.6,0.3,0.3,1.6,0.4,2.4c0,0.3,0.1,0.6,0.2,0.9
			c0.3,1.4,0.9,2.7,1.7,3.7c0.1,0.2,0.3,0.2,0.5,0.4c0.1,0.1,0.2,0.3,0.3,0.4c0.2,0.2,0.5,0.3,0.6,0.6C44.3,79.2,43.9,79,43.7,78.9z
			 M45.5,78.8c-0.2-0.2-0.5-0.3-0.7-0.4c-1.1-0.9-2.1-2.5-2.4-4.3c-0.1-0.4-0.2-0.9-0.1-1.2c0-0.3,0.2-0.6,0.1-0.9
			c0.1,0.2,0.3,0.3,0.3,0.5c0.1,0.2,0,0.3,0,0.5c0.1,0.3,0.2,0.7,0.3,1c0.4,1.6,1.2,2.9,2.1,3.9c0.1,0.2,0.4,0.2,0.5,0.4
			c0.1,0.1,0.2,0.3,0.3,0.5c0.1,0.1,0.3,0.2,0.3,0.4C45.9,79.3,45.7,79,45.5,78.8z M45.8,77.8c-0.8-0.7-1.6-2-1.9-3.1
			c-0.1-0.5-0.2-0.8-0.2-1.3c0-0.5-0.1-0.8,0.1-1.2c0,0,0,0,0.1,0c0.3,0.1,0.2,0.4,0.2,0.7c0.3,1.4,0.8,2.7,1.5,3.7
			c0.1,0.2,0.3,0.4,0.4,0.6c0.1,0.1,0.3,0.2,0.5,0.4c0.1,0.1,0.1,0.2,0.2,0.3c0.3,0.3,0.8,0.5,0.9,1C47,78.8,46.3,78.2,45.8,77.8z
			 M47.7,77.7c-0.8-0.6-1.7-1.5-2.2-2.6c-0.4-0.8-0.7-2.1-0.3-2.9c0,0,0,0,0,0c0,0,0,0,0.1,0c0.2,0.7,0.4,1.4,0.7,2.1
			c0.4,0.9,1,1.7,1.6,2.4c0.5,0.5,1.1,0.7,1.5,1.4C48.5,78.3,48.1,78,47.7,77.7z M48.6,75.8c0.6,0.7,1.4,1.2,2,1.9
			c-0.7,0.1-1.4-0.4-1.8-0.8c-0.6-0.5-1.3-1.3-1.7-2.2c-0.3-0.7-0.5-1.3-0.6-2.2c0-0.1,0-0.1,0-0.1c0,0,0.1,0,0.1,0
			c0.3,0.5,0.5,1,0.8,1.6C47.8,74.6,48.1,75.3,48.6,75.8z M60.7,62.5c-0.1-0.1,0.1-0.3,0-0.3c-0.2,0.1-0.5,0.2-0.5,0.1
			c0.1-0.1,0.3-0.1,0.4-0.1c0,0,0,0,0.1,0c0.1,0,0.2-0.1,0.2-0.1C61.1,62.2,60.9,62.3,60.7,62.5z M60.4,61.7
			c0.4,0.1,0.6,0.2,0.3,0.4c-0.2,0.1-0.3,0.1-0.4,0.1c0,0,0-0.1,0.1-0.1c-0.1,0-0.2,0-0.3,0c0,0,0,0,0,0c0.1,0,0.2-0.1,0.3-0.1
			c0,0-0.2,0-0.3,0c0-0.1,0-0.1-0.1-0.1C60.1,61.7,60.2,61.7,60.4,61.7z M60.2,62.6c0.1,0,0.2,0,0.2,0.1c0.1,0.2-0.3,0.7-0.8,1.3
			c-0.2,0,0.2-0.3,0.2-0.4c-0.1,0-0.3,0.1-0.4,0.1c0-0.1,0-0.2,0-0.3c0,0,0.1,0,0.1-0.1c0.2-0.1,0.3-0.1,0.4-0.2
			c-0.1-0.1-0.4,0.1-0.5,0.1c-0.1-0.1,0.3-0.2,0.4-0.3c0-0.1-0.2,0-0.3,0c0,0,0-0.1,0.1-0.1c-0.1,0-0.1,0-0.1,0
			c0.1-0.1,0.3-0.1,0.4-0.2C60,62.4,60.3,62.5,60.2,62.6z M58.6,66.1c-0.3,0.2-0.6,0.4-0.9,0.4c-0.6,0.5-1,0.6-1.6,0.9
			c0.1-0.3,0.3-0.6,0.3-0.8c0.4-0.4,0.7-0.4,1-0.7c-0.2,0-0.6,0.4-0.7,0.1c0.2-0.3,0.6-0.4,0.7-0.6c-0.1-0.1-0.4,0.2-0.7,0.2
			c-0.1-0.1-0.1-0.1,0-0.2c0.2-0.1,0.4-0.2,0.5-0.3c0.1-0.1,0.1-0.2,0.2-0.3c0.1-0.1,0.2-0.3,0.4-0.3c0.3,0.3,0.3,0.7,0.1,1.3
			c-0.1,0.1-0.2,0.4,0,0.3c0.4-0.4,0.4-0.7,0.4-0.9c0.2-0.2,0.3-0.2,0.4-0.4c-0.1-0.1-0.3,0.2-0.3,0.1c0-0.1,0.3-0.3,0.4-0.4
			c-0.4,0.2-0.5,0.1-0.4-0.2c0.3-0.2,0.6-0.4,0.8-0.4c0,0.1,0,0.2,0.1,0.2c0,0.4-0.1,0.8-0.6,1.6C58.7,65.8,58.6,66,58.6,66.1z
			 M56.4,64.2C56.4,64.2,56.4,64.2,56.4,64.2c0.1-0.2,0.3-0.2,0.4-0.3c-0.1-0.1-0.5,0.1-0.5,0c-0.1-0.2,0.2-0.2,0.5-0.3
			c0.2-0.1,0.3-0.1,0.4-0.2c0.5,0.3,0.6,0.8,0,1.5c-0.3,0.1-0.5,0.1-0.7,0c0.2-0.3,0.5-0.2,0.7-0.4c-0.2-0.1-0.7,0.3-0.9,0
			c0.2-0.2,0.5-0.2,0.7-0.3C57.1,64,56.4,64.4,56.4,64.2z M57.9,61.8c0,0,0.1,0,0.1,0c0.5,0.3,0.7,0.6,0.2,1.1
			c-0.2,0.1-0.4,0.1-0.5,0.1c-0.1-0.1,0.2-0.1,0.2-0.2c-0.1,0-0.2,0-0.3-0.1c0-0.1,0.4-0.1,0.5-0.2c0,0,0,0,0.1-0.1
			c-0.1-0.1-0.4,0-0.5-0.1c0,0,0,0,0-0.1c0.1-0.1,0.3,0,0.5-0.1c-0.2-0.1-0.5-0.1-0.7-0.2c0-0.1,0.3-0.1,0.4-0.1
			C58,61.8,58,61.8,57.9,61.8z M58,63.7c0.1-0.1,0.3-0.1,0.5-0.3c-0.2,0-0.6,0.2-0.7,0.1c0.1-0.1,0.2-0.1,0.3-0.2
			c-0.1,0-0.3,0.1-0.4-0.1c0.2-0.1,0.7-0.3,1-0.4c0.2,0.3,0.6,0.5-0.1,1.2c-0.1-0.1-0.4,0.1-0.5,0c0-0.1,0.2-0.2,0.3-0.2
			C58.2,63.8,57.9,63.9,58,63.7z M59.4,65c0.2-0.3,0.2-0.5,0.3-0.6c0-0.1-0.1,0-0.1-0.1c0,0,0.1-0.1,0.1-0.1c0.4,0-0.1,0.8-0.5,1.5
			C58.7,65.8,59.2,65.3,59.4,65z M59.6,61.6c-0.1-0.1-0.4-0.3-0.5-0.4C59.7,61.2,60,61.4,59.6,61.6z M59.1,61.7
			c0.7,0.1,1,0.4,0.8,0.7c-0.2,0.1-0.2,0.2-0.5,0.3c0-0.1-0.3,0-0.4-0.1c0,0,0.2-0.1,0.3-0.2c-0.1,0-0.4,0.1-0.4,0
			c0.2-0.2,0.6-0.2,0.8-0.3c-0.2,0-0.7,0.1-0.6,0c0.2-0.1,0.4,0,0.5-0.1c-0.1-0.1-0.5,0.1-0.6,0c0.1,0,0.2-0.1,0.3-0.1
			C59,61.9,59.2,61.8,59.1,61.7C59.1,61.7,59.1,61.7,59.1,61.7z M57.8,60.9c0.4,0.1,1,0.3,1.1,0.5c0.1,0.1,0.1,0.3-0.3,0.3
			c-0.1-0.2,0.1-0.3-0.2-0.5C58.3,61.1,57.8,61,57.8,60.9C57.8,60.9,57.8,60.9,57.8,60.9z M56.6,60.8c0.9,0.2,1.3,0.8,0.6,1.1
			c-0.3-0.1,0-0.3,0-0.4C57.2,61.3,56.8,61.1,56.6,60.8C56.6,60.9,56.6,60.9,56.6,60.8z M56.7,61.9c0.6,0.4,0.8,1,0.1,1.5
			c0,0,0,0-0.1,0c-0.3,0-0.8,0.1-1-0.1c0,0,0-0.1,0-0.1c0.3-0.1,0.5,0,0.7-0.1c-0.1-0.1-0.4,0-0.5-0.1c0.1-0.3,0.7-0.1,1-0.3
			c0,0,0,0,0,0c-0.2-0.1-0.6,0.1-0.7-0.2c0.1-0.1,0.4,0,0.6-0.1c-0.2-0.1-0.6,0.1-0.8,0c-0.1-0.2,0.3-0.2,0.5-0.2
			C56.4,62,56.3,61.8,56.7,61.9z M54.3,65.4c0-0.1,0.2-0.2,0.3-0.3c0-0.1-0.2-0.1-0.1-0.3c0.2-0.1,0.3-0.2,0.4-0.3
			c-0.2-0.1-0.5,0.1-0.7,0c0-0.2,0.2-0.3,0.4-0.4c0.2-0.1,0.5-0.1,0.7-0.2c0.4,0.5,0.6,1.2-0.3,2.1c-0.2,0-0.1-0.2-0.2-0.2
			c-0.2,0-0.5,0.1-0.5-0.2c0.3-0.2,0.4-0.1,0.7-0.3C54.9,65.4,54.4,65.6,54.3,65.4z M55.5,60.6C55.5,60.6,55.6,60.6,55.5,60.6
			c0.8,0.4,1,1.1,0.4,1.3c-0.3-0.1,0.1-0.3,0.1-0.5C55.9,61.2,55.7,61,55.5,60.6C55.4,60.7,55.5,60.7,55.5,60.6z M54.5,61.5
			c0.1-0.3-0.1-0.7-0.2-1c0.1,0,0.1-0.1,0.2,0c0.4,0.5,0.6,1.3-0.2,1.4C54.2,61.7,54.4,61.6,54.5,61.5z M54.2,63.5
			C54.2,63.4,54.2,63.4,54.2,63.5c0.2-0.2,0.3-0.1,0.4-0.1c0.1-0.1-0.1-0.1-0.1-0.2C54.6,63,54.8,63,55,63c0-0.2-0.8,0-0.7-0.4
			c0.2-0.1,0.4,0,0.6,0c0-0.1-0.3-0.1-0.3-0.3c0.3-0.1,0.4-0.2,0.3-0.4c0,0,0.1,0,0.1,0c0,0.2,0.2,0.2,0.3,0.3
			c0.3,0.4,0.1,0.7-0.2,1.1c-0.1,0.2-0.3,0.5-0.5,0.7c0,0,0,0-0.1,0c-0.2,0.1-0.4,0-0.5-0.1c0.1-0.1,0.4-0.1,0.4-0.2
			C54.5,63.6,54.2,63.7,54.2,63.5z M53.2,63.3c-0.2-0.2-0.6-0.1-0.7-0.4c0,0,0,0,0-0.1c0.3-0.3,0.7,0.2,1,0
			c-0.2-0.2-0.6-0.1-0.7-0.4c0,0,0-0.1,0.1-0.1c0.2-0.1,0.3,0,0.5,0c0-0.2-0.3-0.1-0.3-0.3c0-0.1,0.2-0.1,0.3-0.1c0.1,0,0-0.1,0-0.2
			c0,0,0.1,0,0.1,0c0.6,0.8,0.4,1.7-0.8,2.4c-0.1-0.1,0.1-0.3-0.2-0.3c-0.2,0.1-0.1,0.2-0.2,0.3c-0.1,0-0.2,0-0.3-0.1
			c0-0.1,0.1-0.3,0.3-0.3c-0.1-0.2-0.3-0.1-0.4-0.3C52.3,63,52.8,63.5,53.2,63.3z M52,65.8c0.1-0.1,0.1-0.1,0.1-0.2
			c0.5-0.3,0.5,0,1-0.2c-0.1-0.2-0.6,0-0.7-0.4c0-0.1,0.2-0.1,0.3-0.2c0-0.2-0.1-0.1-0.2-0.2c0-0.5,0.7-0.1,0.8-0.5
			c0.1-0.1,0.1,0.1,0.2,0.1c0.3,0.8,0.4,1.7-0.9,2.6c-0.1-0.3-0.4-0.2-0.5-0.4c0.1-0.2,0.5-0.3,0.6-0.3C52.8,65.8,52.1,66.2,52,65.8
			z M51.1,62.6c0.1-0.1-0.1-0.2-0.1-0.4c0.2-0.3,0.5,0.1,0.7,0c0-0.2-0.3-0.2-0.3-0.5c0,0,0-0.1,0.1-0.1c0.1,0,0.2,0,0.3,0
			c0.1,0,0-0.3,0.2-0.3c0,0,0.1,0.1,0.1,0.1c0.2,1-0.1,2-1.2,2.5c-0.1-0.3-0.6-0.3-0.4-0.8c0.4-0.1,0.5,0.2,0.7,0.1
			c0-0.2-0.6-0.3-0.3-0.7C51,62.5,51,62.7,51.1,62.6z M50.1,66.4c0.3-0.1,0.4,0.2,0.7,0c0.1,0,0-0.1,0.1-0.1
			c-0.1-0.3-0.9-0.1-0.5-0.7c0.2-0.1,0.4,0.1,0.6-0.1c-0.1-0.3-0.5-0.1-0.4-0.5c0.1-0.1,0.3,0,0.5-0.1c0-0.2-0.3-0.2-0.3-0.4
			c0.2-0.3,0.7-0.4,0.9-0.5c0.2,0.8,0.2,1.6-0.4,2.5c-0.2,0.3-0.6,0.8-1,0.9c-0.1-0.2,0.1-0.3,0.1-0.4C50,67,49.6,66.8,50.1,66.4z
			 M49.3,62.1c0.3-0.1,0.3,0.2,0.6,0.3c0.1-0.3-0.3-0.4-0.3-0.7c0.1-0.1,0.2,0,0.3,0c0-0.3-0.4-0.2-0.3-0.6c0,0,0,0,0-0.1
			c0.3-0.1,0.5,0.2,0.8,0.2c-0.1-0.2-0.4-0.3-0.4-0.6c0.1-0.2,0.4,0,0.6,0c0.1,0,0-0.3,0.3-0.2c0.2,1.3-0.4,2.3-1.5,2.7
			C49.4,62.7,49.2,62.5,49.3,62.1z M48.7,64.5c0.1-0.1,0.3-0.1,0.4-0.2c-0.1-0.5,0.4-0.5,0.7-0.4c0.4,1-0.1,2.8-1.5,3.3
			c0-0.3,0.2-0.3,0.2-0.5c-0.1-0.2-0.3-0.3-0.2-0.6c0,0,0.1-0.1,0.1-0.1c0.2-0.1,0.3,0.1,0.5,0c-0.2-0.3-0.7-0.2-0.6-0.7
			c0.4-0.4,0.6,0,0.9,0C49.2,64.7,48.7,65,48.7,64.5z M48.6,62c0.2,1.6-0.8,2.9-2.1,3.8c-0.2-0.3-0.5-0.6-0.3-1.1
			c0.3-0.2,0.4,0.2,0.6,0.2c0-0.4-0.3-0.4-0.3-0.8c0,0,0-0.1,0.1-0.1c0.4-0.2,0.4,0.3,0.8,0.2c-0.1-0.3-0.4-0.4-0.5-0.7
			c0.1-0.3,0.2-0.4,0.2-0.7c0.2-0.3,0.5-0.1,0.8,0c0-0.4-0.4-0.3-0.2-0.8C48.1,61.7,48.3,62.2,48.6,62z M47.7,55.3
			c0.1-0.1,0.2,0.1,0.3,0.2c0.1-0.3-0.2-0.5-0.2-0.9c0.2-0.2,0.3,0.4,0.5,0.7c0.1,0.1,0.1-0.1,0.1-0.1c0-0.2-0.1-0.3-0.1-0.4
			c0.1,0,0.2,0.3,0.4,0.5c-0.2,0.6-0.6,1.1-1,0.9C47.6,55.8,47.7,55.7,47.7,55.3z M47.7,59.8c0.1,1.9-1.1,3.4-2.6,3.9
			c-0.1-0.3-0.2-0.7,0.1-1.1c0.3,0,0.1,0.3,0.4,0.4c0.2-0.4-0.2-0.6,0-1.1c0.1,0,0.1-0.1,0.2-0.1c0.4,0.1,0.3,0.6,0.6,0.8
			c0.3-0.7-0.5-0.9-0.2-1.7c0.5-0.2,0.5,0.8,1,0.8c0-0.5-0.6-0.6-0.5-1.3c0,0,0-0.1,0.1-0.1c0.5-0.2,0.5,0.4,0.9,0.5
			c0.2-0.4-0.2-0.5-0.2-0.8C47.2,59.5,47.5,59.7,47.7,59.8z M45.5,55.9c0.2,0,0.2,0.4,0.3,0.5c0.1-0.3,0-0.5,0-0.9
			c0.3-0.3,0.3,0.5,0.4,0.6c0.2-0.4-0.2-0.8-0.2-1.4c0.3-0.3,0.4,0.5,0.6,0.7c0,0,0,0,0.1,0c0-0.4-0.2-0.5-0.3-0.8
			c0.1-0.5,0.5,0,0.7,0.1c0,0.4-0.1,1-0.3,1.3c-0.3,0.6-1.1,1.1-1.2,1C45.4,56.9,45.3,56.4,45.5,55.9z M45.3,59.5
			c0.2,0,0.1,0.2,0.2,0.3c0.3-0.4-0.2-1,0.2-1.4c0.3,0.2,0.2,0.8,0.4,1c0.3-0.5-0.2-0.9,0.1-1.5c0.3,0,0.3,0.6,0.5,0.8
			c0.3-0.5-0.3-0.8-0.1-1.3c0.1-0.3,0.5-0.4,0.7-0.3c0.1,2-1.3,3.3-2.4,3.3C44.9,60.1,45.2,59.8,45.3,59.5z M42.4,59.8
			c0.1,0,0,0.2,0.1,0.2c0-0.5,0.6-1.3,0.9-1.8c0.3,0.2,0.1,0.9,0.5,1.1c0.1-0.7-0.4-0.9-0.1-1.7c0.1,0,0.1-0.1,0.2-0.2
			c0.2,0.2,0.3,0.8,0.6,0.9c0.1-0.6-0.4-0.6-0.2-1.4c0.3-0.3,0.5,0.2,0.7,0.3c-0.4,2.2-1.9,3.6-3.1,3.5C42,60.5,42.1,60.1,42.4,59.8
			z M41.5,63.4c-0.1-0.4,0.2-1,0.3-1.6c0.3,0,0.3,0.2,0.5,0.3C41.9,62.7,41.7,62.8,41.5,63.4z M42.7,66.4c-0.5-0.2-1.1-0.5-1-1.2
			c0.4-0.2,0.6,0,0.9,0.1c0.3,0,0.2-0.5,0.4-0.6C43.3,65,43.1,65.9,42.7,66.4z M41.6,64.9c-0.1-0.3,0.1-1,0.3-1.4
			c0.4-0.1,0.4,0.4,0.4,0.7c0.1,0,0.2-0.1,0.3-0.2c0.2-0.6-0.3-0.9,0.2-1.5c0.4,0.2,0.2,0.7,0.5,1c0.5-0.7-0.7-0.9-0.1-1.8
			c0.1,0,0.3,0.1,0.4,0.1c0-0.1-0.1-0.3,0.1-0.5c0.4-0.3,1-0.3,1.3,0C44.4,63.3,43.1,64.6,41.6,64.9z M43.6,66.6
			c0.6-0.3,0.6,0.3,1,0.4c0.3-0.7-0.8-0.7-0.6-1.2c0.3-0.7,0.7,0.2,1.1,0c-0.1-0.6-1-0.5-1-1.2c0.5-0.7,1.1,0.2,1.5,0.1
			c0.1,0.7-0.4,2.3-0.9,3.1C44.2,67.5,43.4,67.4,43.6,66.6z M46.9,68.7c-0.4-0.1-0.9-0.2-1.1-0.5c0.3-0.1,0.4,0.2,0.6,0
			c-0.2-0.4-0.8-0.3-1-0.7c0-0.4,0.4-0.5,0.4-0.9c0.4-0.3,1.1-0.5,1.2-0.1c0.3-0.2,0-0.6,0.2-0.7C47.8,66.2,47.4,67.9,46.9,68.7z
			 M47.5,68.7c0.4-0.5,0.8-0.1,1.1-0.4c-0.1-0.3-0.4,0.1-0.5-0.3c-0.1-0.1,0.1-0.2,0.1-0.3c0.2-0.1,0.5-0.2,0.4-0.5
			c0.5,0,0.5,1,0.7,1.6C48.6,69.2,48.1,68.9,47.5,68.7z M51.6,68.8c-0.6,0.1-1.4,0.4-1.9,0.2c0.2-0.1,0.2,0,0.5-0.1
			c0-0.2-0.3-0.1-0.1-0.4c0.5-0.3,0.8-0.7,1.3-0.8c0.1-0.2-0.2-0.5,0.2-0.7C51.8,67.4,51.8,68.2,51.6,68.8z M51.9,68.8
			c0.2-0.2,0.3-0.5,0.4-0.7c0.6-0.5,1-0.4,1.4-0.6c0.2-0.6-1.1,0.4-1.3,0c0,0,0-0.1,0-0.1c0.6-0.6,1.2-0.3,1.6-0.9
			c0.4,0.3,0.2,1.1,0,1.7c0,0,0,0,0,0c0.4-0.3,0.6-0.7,0.6-1c0.4-0.3,0.6-0.2,0.9-0.5c-0.2-0.1-0.9,0.4-0.7-0.1c0,0,0.1-0.1,0.1-0.1
			c0.2-0.1,0.3-0.1,0.5-0.2c0.2-0.1,0-0.2,0.1-0.4c0.7-0.4,0.7,0.3,0.5,1c-0.1,0.3-0.2,0.5-0.3,0.7c-0.7,0.5-1.3,0.7-1.9,0.9
			C53.2,68.5,52.6,68.6,51.9,68.8z M63,75.2c-0.4-0.1-0.9-0.2-1.2-0.2c0,0-0.1-0.1-0.1-0.1c-0.1,0-0.1,0.1-0.2,0
			c-0.3-0.1-0.7-0.1-0.9-0.2c-0.2-0.1-0.4-0.2-0.6-0.3c-0.6-0.2-1.1-0.5-1.6-0.8c-1.2-0.8-2.5-1.5-3.3-2.3c0.7,0.3,1.6,0.7,2.3,1
			c0.2,0.1,0.4,0.2,0.6,0.3c0.2,0.1,0.4,0.1,0.6,0.2c0.2,0.1,0.4,0.3,0.6,0.3c0.1,0,0.1,0,0.2,0c0.3,0.1,0.5,0.3,0.7,0.4
			c0.3,0.1,0.5,0.3,0.8,0.4c0.4,0.1,0.8,0.3,1.2,0.4c0.1,0,0.1,0.1,0.2,0.1c0.4,0.1,0.9,0.1,1.2,0.3c0,0,0.1,0,0.2,0
			c0,0.2,0.2,0,0.3,0.1C63.7,75.2,63.2,75,63,75.2z M64.7,74.5c-0.2-0.1-0.3,0-0.6-0.2c-0.1,0-0.2,0.1-0.3,0
			c-0.2-0.1-0.5-0.1-0.6-0.3c-0.9-0.1-1.7-0.7-2.5-0.9c-0.1-0.2-0.5-0.2-0.7-0.3c-0.1,0-0.1-0.1-0.2-0.1c-0.2-0.1-0.4-0.1-0.6-0.2
			c-0.3-0.2-0.7-0.3-1-0.5c-0.5-0.2-0.9-0.5-1.3-0.7c-0.3-0.1-0.8-0.2-1-0.4c-0.2,0-0.4-0.1-0.5-0.2c-0.3,0-0.7-0.2-1-0.3
			c0-0.1-0.1-0.1-0.1-0.2c0.2,0,0.4,0,0.7,0c0.4,0.1,0.7,0.3,1.1,0.3c0,0.2,0.3,0.1,0.4,0.2c1.1,0.3,2.1,0.8,3.2,1.1
			c0.1,0.1,0.3,0.1,0.4,0.2c0.7,0.2,1.2,0.4,1.8,0.7c0.1,0,0.1,0,0.2,0c1.3,0.6,2.4,0.8,3.7,1.4C65.4,74.4,65,74.3,64.7,74.5z
			 M67.1,73.9c-0.2,0-0.4-0.2-0.6-0.2c-1.9-0.7-3.7-1.4-5.6-2.3c-0.2,0.1-0.3-0.1-0.4-0.1c-0.6-0.4-1.5-0.4-2.2-0.7
			c-0.1,0-0.1,0-0.2,0c0-0.1-0.1-0.1-0.1-0.1c-0.3,0.1-0.5-0.3-0.8-0.1c-0.1,0,0-0.1-0.2-0.1c0,0.1-0.1,0-0.2,0.1
			c-0.2-0.2-0.5-0.1-0.7-0.2c0.2,0,0.4-0.1,0.6-0.2c0,0,0.1,0.1,0.1,0.1c0-0.1,0.1,0,0.2-0.1c0.1,0,0,0.1,0.2,0.1c0.1,0,0.1,0,0.2,0
			c0.2,0.1,0.4,0.2,0.6,0.2c0.4,0.2,1,0.2,1.4,0.5c0.1,0,0.1,0,0.2,0c0.1,0,0,0.1,0.1,0.1c0.2-0.1,0.3,0.1,0.5,0.1
			c0.3,0.2,0.8,0.2,1.1,0.4c0.1,0,0.1,0,0.2,0c0.4,0.1,0.8,0.3,1.2,0.5c0.1,0,0.1,0,0.2,0c0.1,0,0.2,0.2,0.4,0.2c0,0,0.1,0,0.2,0
			c0.1,0,0.3,0.2,0.4,0.2c0.4,0.1,0.8,0.3,1.3,0.4c0.2,0.1,0.4,0.2,0.6,0.2c0,0.1,0.3,0.1,0.4,0.2c0.3-0.1,0.5,0.2,0.8,0.2
			c0.5,0.3,1,0.2,1.5,0.6c0.1,0,0.1,0,0.2,0C68.2,73.7,67.6,73.9,67.1,73.9z M70.7,72.7c-0.1,0.2-0.5,0-0.7,0.2
			c-0.7-0.3-1.3-0.3-1.9-0.6c-0.5,0-0.9-0.2-1.2-0.4c-0.2,0.1-0.3-0.1-0.5-0.1c-0.3-0.2-0.9-0.2-1.2-0.5c-0.3,0.1-0.5-0.2-0.8-0.2
			c-0.1,0-0.1-0.1-0.1-0.1c-0.9-0.2-2-0.6-2.9-0.7c-0.1-0.2-0.3,0-0.4-0.2c-0.6,0-1.3-0.4-1.8-0.3c-0.1-0.1-0.2-0.1-0.4-0.1
			c-0.1,0,0-0.1-0.1-0.1c-0.2,0-0.5-0.1-0.7-0.1c0.2-0.1,0.3-0.2,0.5-0.3c0.6,0.2,1.2,0.2,1.8,0.3c0.1,0,0.1,0.1,0.1,0.1
			c0.6,0,1.4,0.2,2,0.4c0.4,0,1,0.2,1.4,0.3c0.5,0,0.9,0.3,1.4,0.3c0.1,0,0,0.1,0.1,0.1c0.1-0.1,0.2,0,0.3,0.1
			c0.2,0,0.5,0.1,0.6,0.2c0.2,0,0.4,0.1,0.6,0.2c0.8,0,1.6,0.5,2.4,0.5c0.5,0.2,1,0.2,1.5,0.5C70.7,72.4,70.8,72.6,70.7,72.7z
			 M71.8,71.5c-0.6-0.3-1.4-0.4-2-0.7c-0.5,0-1.2-0.4-1.8-0.4c-0.5-0.1-0.9-0.3-1.3-0.3c-0.1-0.2-0.6-0.1-0.7-0.3
			c-0.1,0-0.1,0-0.2,0.1c-0.5-0.2-1-0.2-1.5-0.4c-0.5,0-1.1-0.3-1.6-0.2c-0.3-0.2-0.9-0.1-1.2-0.3c-0.7,0-1.6-0.3-2.2-0.3
			c0.2-0.1,0.3-0.2,0.4-0.3c0,0,0,0,0,0c0,0,0,0,0,0c0.1,0,0.1,0,0.2,0c0.1,0.2,0.3,0,0.5,0.1c0.5,0,1,0.1,1.6,0.2
			c0.3-0.1,0.7,0.2,1,0c0.1,0,0.1,0.1,0.2,0.1c0.1,0,0.1,0,0.2,0c0.9,0.2,1.6,0.3,2.5,0.5c0.1,0,0.1,0.1,0.2,0.1
			c0.5,0,0.9,0.1,1.4,0.3c0.1,0,0.1,0,0.2,0c0.3,0.1,0.5,0.1,0.8,0.1c0.1,0,0,0.1,0.1,0.1c0.3,0,0.7,0.1,1.1,0.2
			c0.2-0.1,0.4,0,0.7,0.1c0.1,0,0.2-0.1,0.3,0c0.6,0.2,1.1,0.3,1.7,0.5C72.3,70.9,72.1,71.4,71.8,71.5z M73.4,69.7
			c-0.5,0-1-0.1-1.5-0.4c-0.5,0-1.1-0.2-1.6-0.4c-0.6,0-1.1-0.2-1.7-0.4c-0.2,0.1-0.7-0.2-1-0.1c-0.1,0-0.1-0.1-0.2-0.1
			c-0.1,0-0.2,0.1-0.3,0c-0.3-0.2-0.8-0.1-1.2-0.3c-0.6,0.1-1.3-0.3-1.9-0.2c-0.5-0.1-1.1-0.2-1.6-0.2c-0.1,0-0.1-0.1-0.2-0.1
			c-0.1,0-0.2,0.1-0.3,0.1c0,0,0-0.1-0.1-0.1c-0.4,0.1-1-0.2-1.5-0.1c0.1-0.1,0.3-0.3,0.4-0.4c0.3,0,0.7,0,1,0.2
			c0.1,0,0.2-0.1,0.3,0c0.3,0.1,0.6,0,1,0.2c0.1,0,0.2-0.1,0.3,0c0.2,0.2,0.3-0.1,0.5,0.1c0.1,0,0.2,0,0.3-0.1
			c0.5,0.2,0.9,0,1.4,0.2c0.7-0.1,1.4,0.2,2,0.1c0.1,0,0.1,0.1,0.2,0.1c0.1,0,0.2-0.1,0.3,0c0.3,0.1,0.6,0,0.9,0.2
			c0.5-0.2,1,0.1,1.5,0.1c0.2,0.1,0.4,0.1,0.7,0.1c0.1,0,0.1,0.1,0.1,0.1c0.5-0.1,0.8,0.2,1.3,0.1c0.1,0,0.1,0.1,0.2,0.1
			c0.3-0.1,1,0.1,0.6,0.6C73.5,69.4,73.5,69.5,73.4,69.7z"/>
		<path class="st0" d="M56.9,51.8c0.1,0,0.2,0,0.3,0.1c0.1,0,0.2,0.1,0.3,0.1c0,0,0,0,0.1,0c0.1,0,0.3,0.1,0.4,0.1
			c0.1,0,0.3,0.1,0.4,0.1c0.2,0,0.4,0.1,0.6,0.1c0,0,0.1,0,0.1,0c0.2,0,0.5-0.1,0.6,0c0,0,0,0,0,0c0,0,0,0,0.1,0c0,0,0,0,0,0
			c0.5-0.1,1-0.3,1.5-0.5c1.4-0.8,2.1-2,2.9-3.2c0.2-0.7,0.5-1.2,0.7-1.9c0.1-0.5,0.5-1.5,0.2-2.1c-0.7-1.3-3.3-0.5-4.7,0
			c-2.5,0.8-4.7,2.1-5.7,3.8c-0.1,0.2-0.2,0.5-0.3,0.7c-0.1,0.5-0.6,0.8-0.5,1.4c0,0.5,0.3,0.8,0.7,1c0.6,0.4,1.4,0.5,2.2,0.6
			c-0.5-0.2-1-0.4-1.4-0.7c0.4,0.1,0.9,0.2,1.2,0.3C56.7,51.7,56.8,51.8,56.9,51.8z M55.9,47.4c0.1,0,0.1-0.1,0.2-0.1
			c0,0,0.1,0,0.1,0c0.1,0,0.3-0.2,0.4-0.2c0.1,0,0.2,0,0.3-0.1c0,0,0.1,0,0.1,0c0.1-0.1,0.3-0.1,0.4-0.2c0.1,0,0.2,0,0.3-0.1
			c0.2,0.1,0.2-0.1,0.4-0.1c0.1-0.1,0.3-0.2,0.5-0.2c0.4-0.2,0.9-0.3,1.4-0.5c0,0,0,0,0.1,0c0.8-0.3,1.8-0.3,2.6-0.4
			c-0.1,0.4-0.6,0.3-0.9,0.4c-0.1,0,0,0-0.1,0c-0.1,0-0.1,0.1-0.2,0c-0.2,0.1-0.4,0.2-0.7,0.1c-0.3,0.2-0.6,0.1-0.9,0.2
			c0,0,0,0-0.1,0c-0.2,0.1-0.4,0.2-0.7,0.1c-0.1,0.1-0.3,0.2-0.5,0.1c-0.1,0-0.1,0.1-0.2,0.1c-0.2,0-0.4,0-0.5,0.2
			c-0.2,0-0.4,0.2-0.6,0.1c-0.1,0.1-0.3,0.1-0.4,0.2c-0.1,0-0.1,0-0.1,0c-0.1,0-0.1,0.1-0.2,0.1c-0.1,0-0.2,0.1-0.3,0.1
			c0,0,0,0-0.1,0c-0.1,0.1-0.1,0.2-0.3,0.1c-0.1,0-0.1,0.1-0.2,0.1c-0.2-0.1-0.2,0.1-0.3,0.1C55.6,47.4,55.7,47.4,55.9,47.4z
			 M55.3,48.1C55.3,48.1,55.4,48.1,55.3,48.1c0.2,0,0.2-0.1,0.3,0c0.2-0.2,0.5-0.1,0.6-0.2c0.1,0.1,0.2,0,0.2-0.1
			c0.2,0,0.4-0.1,0.6-0.1c0.1,0,0.1-0.1,0.2-0.1c0.2,0,0.3-0.1,0.5-0.1c0,0,0,0,0.1,0c0.3-0.2,0.8-0.2,1.1-0.4c0,0,0.1,0,0.1,0
			c0.3-0.1,0.6-0.1,0.9-0.2c0,0,0,0,0.1,0c0.1,0,0.1-0.1,0.2,0c0.1-0.1,0.3-0.1,0.4-0.1c0.1-0.1,0.2,0,0.3-0.1c0,0,0.1,0,0.1-0.1
			c0,0,0.1,0,0.1,0c0.1,0,0.1,0,0.1-0.1c0,0,0.1,0,0.1,0c0.1,0,0.1-0.1,0.1-0.1c0.1,0,0.1,0,0.2,0c0.2,0,0.4-0.1,0.6-0.1
			c0,0,0.1,0,0.1-0.1c0.3,0,0.4,0,0.6-0.1c0.1,0.1,0.1,0,0.2,0c0.1,0,0.2,0,0.2,0c0,0,0.1,0,0.1,0c0.1,0,0.2,0,0.2,0
			c0,0,0.1,0,0.1,0c0.3,0,0.4,0.2,0.2,0.5c-0.2,0-0.4,0-0.6,0c-0.2,0-0.5-0.1-0.7,0c-0.3-0.1-0.4,0.1-0.7,0c-0.1,0.1-0.2,0-0.3,0.1
			c-0.1-0.1-0.2,0-0.2,0.1c-0.2-0.1-0.4,0.1-0.7,0.1c-0.3,0.1-0.5,0.2-0.8,0.1c-0.2,0.1-0.4,0.1-0.7,0.1c-0.4,0.2-0.8,0.2-1.2,0.3
			c0,0,0,0-0.1,0c-0.1,0.1-0.3,0.1-0.4,0.1c0,0-0.1,0.1-0.2,0.1c-0.1-0.1-0.2,0.1-0.3,0c-0.1,0-0.1,0.1-0.2,0.1
			c-0.1,0-0.1,0.1-0.2,0.1c-0.1,0,0-0.1-0.1,0c-0.1,0.1-0.3,0-0.4,0.2c0,0,0,0-0.1,0c-0.1,0.1-0.1,0.2-0.3,0.1c0,0-0.1,0.1-0.2,0.1
			c-0.1-0.1-0.2,0.2-0.3,0c-0.1,0-0.1,0.1-0.2,0.1C55.1,48.2,55.2,48.2,55.3,48.1z M55.2,48.8c0,0,0.1-0.1,0.2-0.1c0,0,0,0,0.1,0
			c0.1-0.1,0.3,0,0.4-0.1c0.1,0,0,0,0.1,0c0.1-0.1,0.1-0.2,0.2-0.1c0,0,0.1-0.1,0.1-0.1c0,0,0,0,0.1,0c0.1-0.1,0.3,0,0.4-0.1
			c0,0,0,0,0.1,0c0.1-0.1,0.3,0,0.3-0.1c0,0,0,0,0.1,0c0.1,0,0.1-0.1,0.2-0.1c0.3,0,0.6-0.1,0.9-0.1c0,0,0.1-0.1,0.1-0.1
			c0.2,0,0.3-0.1,0.5,0c0,0,0.1-0.1,0.1-0.1c0.1,0.1,0.2-0.1,0.3,0c0,0,0.1,0,0.1-0.1c0.2,0,0.4-0.1,0.7-0.1c0.3-0.2,0.7-0.1,1-0.2
			c0,0,0,0,0.1,0c0,0,0.1-0.1,0.1-0.1c0.2,0,0.3-0.1,0.5,0c0.2-0.2,0.5-0.1,0.7-0.2c0.1,0,0.2,0,0.3,0c0,0,0,0,0.1,0
			c0.2-0.1,0.4,0,0.6-0.1c0,0,0,0,0.1,0c0.1-0.1,0.5-0.1,0.4,0.3c0.1,0.1,0.1,0.2,0,0.3c-0.3,0.1-0.5,0.1-0.7,0
			c-0.2,0.1-0.5,0-0.8,0c-0.3,0.1-0.6,0-0.9,0c-0.1,0.1-0.3,0-0.5,0.1c-0.1,0,0,0-0.1,0c0,0-0.1,0.1-0.1,0.1c-0.2-0.1-0.4,0.1-0.6,0
			c-0.3,0.1-0.7,0-0.9,0.2c-0.3,0-0.5,0-0.8,0.1c0,0,0,0-0.1,0c-0.1,0-0.1,0.1-0.1,0.1c0,0,0,0-0.1,0c-0.2,0.1-0.5,0-0.7,0.2
			c0,0,0,0-0.1,0c0,0.1-0.1,0.1-0.2,0c-0.1,0.1-0.4,0-0.5,0.1c0,0,0,0-0.1,0c-0.1,0.1-0.1,0.1-0.2,0c0,0.1-0.1,0.1-0.2,0.1
			c-0.1,0.1-0.3,0-0.4,0.1c-0.1,0,0-0.1-0.1,0c-0.1,0-0.1,0.1-0.2,0.1c0,0,0,0-0.1,0c-0.1,0.1-0.3,0-0.4,0.2c-0.1-0.1-0.2,0.1-0.3,0
			C54.9,48.9,55,48.7,55.2,48.8z M54.8,49.3C54.9,49.2,54.9,49.3,54.8,49.3c0.1,0,0.2,0,0.2,0c0.1,0,0,0,0.1,0c0,0,0.1,0,0.1-0.1
			c0.1,0,0.1,0,0.1,0.1c0.1-0.1,0.1-0.1,0.2-0.1c0,0,0.1-0.1,0.1-0.1c0.1,0.1,0.2-0.1,0.3,0c0.1-0.1,0.3-0.1,0.4-0.1
			c0.2-0.1,0.4-0.1,0.6-0.1c0.1-0.1,0.2-0.1,0.4,0c0,0,0.1,0,0.1-0.1c0.1,0.1,0.2-0.1,0.3,0c0.2-0.1,0.5-0.1,0.8-0.1
			c0.1-0.1,0.3,0,0.5-0.1c0.1,0,0,0,0.1,0c0,0,0.1,0,0.1-0.1c0.5,0,0.8,0,1.3-0.1c0,0,0,0,0.1,0c0.2-0.1,0.5,0,0.7,0
			c0,0,0.1,0,0.1-0.1c0.1,0,0.3,0,0.4,0c0,0,0,0,0.1,0c0.2-0.1,0.4,0,0.5,0c0.1-0.1,0.2,0,0.3,0c0.1,0,0.1-0.1,0.1-0.1
			c0.3,0,0.6,0,0.9,0.1c0,0.1,0,0.5-0.1,0.6c-0.3-0.1-0.7,0-1-0.1c-0.3,0.1-0.6-0.1-0.9,0c-0.2,0-0.5-0.1-0.7,0
			c-0.1-0.1-0.3,0-0.4-0.1c0,0-0.1,0-0.1,0.1c-0.3,0-0.5,0-0.8,0c-0.2,0.1-0.6,0-0.8,0.1c-0.2-0.1-0.4,0.1-0.6,0
			c-0.4,0.1-0.8,0-1.2,0.1c-0.1-0.1-0.2,0-0.3,0c0,0-0.1,0-0.1,0.1c-0.2-0.1-0.6,0.1-0.8,0c0,0-0.1,0-0.1,0.1c-0.1,0,0,0-0.1,0
			c-0.1,0.1-0.2,0-0.3,0.1c-0.1,0,0-0.1-0.1,0c-0.1,0-0.1,0.1-0.2,0c0,0.1-0.2,0.1-0.3,0C54.8,49.4,54.8,49.3,54.8,49.3z M54.8,49.8
			c0.1,0.1,0.2-0.1,0.3,0c0,0,0.1-0.1,0.1-0.1c0.1,0.1,0.3,0,0.4,0c0.1,0.1,0.2-0.1,0.2,0c0,0,0.1,0,0.1-0.1c0,0.1,0.1,0,0.2,0
			c0.1,0,0,0.1,0.1,0c0,0,0.1,0,0.1-0.1c0.1,0.1,0.2,0,0.2,0.1c0,0,0.1-0.1,0.1-0.1c0.4,0,0.7,0,1.1,0c0,0,0,0,0.1,0
			c0.3-0.1,0.7-0.1,1,0c0.2,0,0.5,0,0.7,0c0.2-0.1,0.5,0,0.7,0c0,0,0,0,0.1,0c0,0,0.1,0,0.2,0c0.1-0.1,0.2,0,0.3,0
			c0.1-0.1,0.2,0,0.3,0c0.4-0.1,0.8,0.1,1.2,0c0.3,0.1,0.5,0,0.8,0.1c0,0.1,0.1,0.2,0.1,0.3c0,0.1-0.2,0.1-0.3,0.2
			c-0.4-0.1-0.7,0-1-0.1c-0.2,0-0.4,0-0.6-0.1c-0.1,0.1-0.2,0-0.2,0c-0.2-0.1-0.5,0-0.6-0.2c-0.1,0.1-0.3,0-0.4,0c0,0,0,0-0.1,0
			c-0.5,0-1-0.1-1.5,0c-0.1-0.1-0.1,0-0.2,0c-0.3,0.1-0.7,0-0.9,0.1c-0.1-0.1-0.1,0-0.2,0c0,0,0,0-0.1,0c-0.3,0.1-0.5,0-0.8,0.1
			c0,0,0,0-0.1-0.1c0,0,0,0.1-0.1,0.1c-0.1,0,0-0.1-0.1,0c-0.1,0.1-0.3,0-0.5,0.1c-0.1,0,0-0.1-0.1-0.1c0,0-0.1,0-0.1,0.1
			c-0.1-0.1-0.2,0.1-0.3,0c-0.1,0-0.1,0.1-0.1,0.1C54.8,50,54.8,49.9,54.8,49.8z M54.8,50.2c0.1,0.1,0.1,0,0.2,0c0,0,0,0,0.1,0.1
			c0.1-0.1,0.1,0,0.2,0c0,0,0.1,0,0.1-0.1c0.1,0,0,0.1,0.1,0.1c0,0,0-0.1,0.1-0.1c0,0,0,0.1,0.1,0.1c0,0,0.1,0,0.1-0.1
			c0,0,0,0.1,0.1,0.1c0,0,0.1,0,0.1-0.1c0.1,0,0,0.1,0.1,0.1c0,0,0.1,0,0.1-0.1c0.1,0,0,0.1,0.1,0.1c0-0.1,0.1,0,0.2,0
			c0,0,0.1,0,0.1-0.1c0.1,0,0,0.1,0.1,0c0,0,0.1,0,0.1,0c0.1,0,0.2,0.1,0.3,0c0.2,0.1,0.5,0,0.7,0.1c0,0,0,0,0.1,0c0,0,0,0,0.1,0
			c0.1-0.1,0.1,0,0.2,0c0.2,0.1,0.4,0,0.6,0.1c0,0,0,0,0.1,0c0.2,0,0.4,0.1,0.6,0.1c0,0,0.1,0,0.1,0c0.1,0,0.1,0.1,0.2,0.1
			c0,0,0.1,0,0.1,0c0.1,0,0.2,0.1,0.2,0.1c0.2,0,0.4,0.1,0.6,0.1c0.1,0,0.2,0.1,0.3,0c0,0.1,0.1,0,0.2,0.1c0.1-0.1,0.3,0.1,0.4,0
			c0.3,0.1,0.5,0,0.8,0.2c0,0,0.1,0,0.1,0c-0.2,0.2-0.4,0.4-0.7,0.4c-0.1,0-0.2-0.1-0.3,0c-1-0.2-1.9-0.4-3-0.6
			c-0.1,0.1-0.1-0.1-0.2,0c-0.3-0.1-0.8,0-1.1-0.1c0,0-0.1,0-0.1,0c0,0,0,0-0.1-0.1c-0.1,0.1-0.3-0.1-0.4,0c-0.1,0,0-0.1-0.1-0.1
			c0,0-0.1,0-0.1,0.1c-0.1-0.1-0.3,0-0.4-0.1c-0.1,0.1-0.3-0.1-0.4,0c0,0,0,0,0-0.1c0,0-0.1,0.1-0.1,0.1c0-0.1-0.1,0-0.2-0.1
			c0,0-0.1,0.1-0.1,0.1C54.8,50.4,54.8,50.3,54.8,50.2z M55.8,51c-0.1,0-0.2,0-0.3-0.1c-0.2,0-0.3,0-0.5-0.1c0-0.1-0.1-0.1-0.1-0.2
			c0.3,0,0.6,0.1,0.9,0.1c0,0.1,0.1,0,0.2,0.1c0.6,0,1.1,0.2,1.6,0.2c0,0.1,0.2,0,0.2,0.1c0.3,0,0.6,0.1,1,0.2c0,0,0,0,0.1,0
			c0.7,0.2,1.2,0.1,1.9,0.3c-0.1,0.2-0.3,0.2-0.4,0.3c-0.1-0.1-0.2,0-0.3,0c0,0-0.1,0.1-0.1,0.1c-0.1,0-0.2,0-0.3-0.1
			c-0.4,0.1-0.9-0.2-1.3-0.2c-0.1-0.1-0.3-0.1-0.4-0.1c0,0-0.1-0.1-0.1-0.1c-0.1,0-0.2,0-0.3,0c-0.2,0-0.4-0.1-0.5-0.1
			c-0.2,0-0.5-0.2-0.7-0.2C56.1,51.1,55.9,51.1,55.8,51z"/>
	</g>
</g>
</svg>
